<svg xmlns="http://www.w3.org/2000/svg" xmlns:xlink="http://www.w3.org/1999/xlink" width="136" zoomAndPan="magnify" viewBox="0 0 102 60" height="80" preserveAspectRatio="xMidYMid meet" version="1.0"><defs><clipPath id="f83385aee1"><path d="M 64.753906 0 L 102 0 L 102 60 L 64.753906 60 Z M 64.753906 0 " clip-rule="nonzero"/></clipPath><clipPath id="83820ce761"><path d="M 64.753906 0 L 102 0 L 102 60 L 64.753906 60 Z M 64.753906 0 " clip-rule="nonzero"/></clipPath><clipPath id="435cc72403"><path d="M 0.75 0 L 35.25 0 L 35.25 60 L 0.75 60 Z M 0.75 0 " clip-rule="nonzero"/></clipPath><clipPath id="1bbffab92f"><path d="M 0.757812 0 L 35.246094 0 L 35.246094 60 L 0.757812 60 Z M 0.757812 0 " clip-rule="nonzero"/></clipPath><clipPath id="753929e63e"><rect x="0" width="36" y="0" height="60"/></clipPath><clipPath id="4189474b16"><path d="M 33.863281 0.0546875 L 68.359375 0.0546875 L 68.359375 59.949219 L 33.863281 59.949219 Z M 33.863281 0.0546875 " clip-rule="nonzero"/></clipPath><clipPath id="a7272fb1e1"><path d="M 33.863281 0.0546875 L 68.359375 0.0546875 L 68.359375 59.949219 L 33.863281 59.949219 Z M 33.863281 0.0546875 " clip-rule="nonzero"/></clipPath></defs><rect x="-10.2" width="122.4" fill="#ffffff" y="-6" height="72" fill-opacity="1"/><rect x="-10.2" width="122.4" fill="#ffffff" y="-6" height="72" fill-opacity="1"/><g clip-path="url(#f83385aee1)"><path fill="#0f0e0c" d="M 101.691406 47.65625 C 101.359375 46.816406 100.800781 46.101562 100.261719 45.410156 L 100.152344 45.265625 C 98.042969 42.554688 96.171875 39.632812 94.582031 36.578125 C 94.496094 36.417969 94.414062 36.261719 94.332031 36.097656 C 94.441406 35.78125 94.589844 35.46875 94.746094 35.140625 C 95.039062 34.535156 95.339844 33.90625 95.375 33.199219 C 95.421875 32.183594 94.898438 31.113281 93.890625 30.1875 C 93.488281 29.8125 93.042969 29.484375 92.613281 29.167969 C 92.195312 28.859375 91.761719 28.539062 91.378906 28.183594 C 90.917969 27.757812 90.503906 27.257812 90.105469 26.773438 C 89.875 26.496094 89.636719 26.207031 89.386719 25.933594 C 88.5 24.953125 87.675781 24.375 86.789062 24.125 C 86.167969 23.945312 85.507812 23.957031 84.929688 24.144531 C 84.855469 24.167969 84.78125 24.195312 84.710938 24.226562 C 84.671875 24.050781 84.636719 23.871094 84.601562 23.695312 C 84.570312 23.542969 84.542969 23.390625 84.515625 23.234375 C 84.773438 23.386719 85.039062 23.515625 85.3125 23.625 C 85.679688 23.765625 86.257812 23.863281 86.6875 23.65625 C 86.917969 23.542969 87.078125 23.359375 87.152344 23.125 C 87.25 22.808594 87.144531 22.515625 87.054688 22.261719 C 86.996094 22.085938 86.9375 21.925781 86.957031 21.792969 C 87 21.511719 87.398438 21.335938 87.75 21.183594 L 87.800781 21.160156 C 89.144531 20.566406 90.210938 19.40625 90.753906 17.953125 C 91.730469 17.832031 92.6875 17.21875 93.183594 16.375 C 93.859375 15.226562 93.972656 13.777344 93.539062 11.804688 C 92.824219 8.542969 91.226562 5.4375 88.910156 2.824219 C 87.410156 1.136719 85.972656 0.3125 84.519531 0.308594 C 84.515625 0.308594 84.507812 0.308594 84.503906 0.308594 C 83.519531 0.308594 82.609375 0.691406 81.734375 1.0625 C 81.503906 1.160156 81.261719 1.261719 81.023438 1.351562 C 80.097656 1.710938 78.800781 2.007812 77.878906 1.394531 C 77.699219 1.273438 77.53125 1.117188 77.359375 0.953125 C 77.144531 0.753906 76.925781 0.542969 76.65625 0.386719 C 76.199219 0.113281 75.617188 -0.00390625 74.976562 0.046875 C 72.929688 0.207031 71.382812 1.832031 70.089844 3.347656 C 68.757812 4.910156 67.414062 6.332031 65.667969 6.542969 L 65.636719 6.546875 C 65.480469 6.566406 65.285156 6.585938 65.113281 6.71875 C 64.796875 6.957031 64.75 7.410156 64.988281 7.9375 C 65.964844 10.066406 68.105469 11.613281 70.492188 11.941406 C 70.519531 11.976562 70.550781 11.996094 70.589844 12.007812 C 70.738281 12.390625 70.894531 12.777344 71.042969 13.160156 C 71.335938 13.898438 71.570312 14.867188 71.015625 15.285156 C 70.832031 15.425781 70.570312 15.484375 70.296875 15.542969 C 70.175781 15.570312 70.050781 15.597656 69.925781 15.632812 C 69.390625 15.789062 68.867188 16.207031 68.902344 16.785156 C 68.921875 17.101562 69.101562 17.347656 69.273438 17.546875 C 69.480469 17.78125 69.707031 18 69.925781 18.214844 C 70.320312 18.589844 70.6875 18.949219 70.929688 19.386719 C 71.273438 20.007812 71.332031 20.734375 71.398438 21.503906 C 71.417969 21.789062 71.445312 22.082031 71.484375 22.371094 C 71.636719 23.496094 72.230469 24.796875 73.421875 25.066406 C 74.148438 25.230469 74.816406 24.964844 75.460938 24.707031 C 75.886719 24.539062 76.289062 24.375 76.695312 24.335938 C 76.84375 24.320312 76.949219 24.332031 77.007812 24.371094 C 77.082031 24.425781 77.128906 24.566406 77.167969 24.707031 C 77.234375 24.945312 77.292969 25.195312 77.34375 25.46875 C 76.554688 25.933594 75.757812 26.46875 75.125 27.183594 C 74.179688 28.25 73.808594 29.558594 74.125 30.6875 C 74.191406 30.917969 74.285156 31.152344 74.425781 31.417969 C 74.113281 31.757812 73.746094 32.074219 73.363281 32.402344 C 72.726562 32.941406 72.070312 33.503906 71.640625 34.230469 C 71.316406 34.78125 71.136719 35.402344 70.976562 35.949219 C 70.152344 38.789062 69.21875 42.003906 69.738281 45.175781 C 69.777344 45.414062 69.824219 45.65625 69.871094 45.890625 C 70.035156 46.707031 70.1875 47.480469 70.023438 48.230469 C 69.933594 48.648438 69.742188 49.039062 69.542969 49.457031 C 69.417969 49.71875 69.289062 49.992188 69.183594 50.273438 C 68.578125 51.886719 68.867188 53.550781 69.210938 54.664062 C 69.335938 55.058594 69.488281 55.460938 69.675781 55.894531 C 69.703125 55.953125 69.742188 56 69.796875 56.03125 C 70.488281 56.445312 71.191406 56.832031 71.914062 57.183594 C 72.109375 57.277344 72.308594 57.371094 72.507812 57.460938 C 76.144531 59.128906 80.128906 60 84.125 60 C 85.089844 60 86.054688 59.949219 87.011719 59.847656 C 87.371094 59.808594 87.730469 59.765625 88.082031 59.710938 C 88.3125 59.679688 88.535156 59.644531 88.761719 59.601562 C 93.101562 58.855469 97.230469 57.0625 100.792969 54.371094 C 100.835938 54.335938 100.871094 54.292969 100.890625 54.242188 C 101.070312 53.800781 101.261719 53.324219 101.4375 52.835938 C 102.167969 50.765625 102.25 49.070312 101.691406 47.65625 " fill-opacity="1" fill-rule="nonzero"/></g><path fill="#ffffff" d="M 72.578125 35.917969 C 72.429688 35.789062 71.980469 35.933594 72.148438 36.152344 C 72.675781 36.832031 73.277344 37.449219 73.683594 38.214844 C 74.199219 39.191406 74.140625 40.226562 74.003906 41.285156 C 73.746094 43.335938 73.445312 45.382812 73.1875 47.433594 C 72.925781 49.488281 72.660156 51.539062 72.390625 53.589844 C 72.261719 54.578125 72.132812 55.566406 72.003906 56.554688 C 71.996094 56.59375 71.992188 56.632812 71.988281 56.671875 C 71.964844 56.839844 71.941406 57.007812 71.914062 57.183594 C 72.109375 57.277344 72.308594 57.371094 72.507812 57.460938 C 72.53125 57.25 72.554688 57.042969 72.582031 56.832031 C 72.589844 56.777344 72.597656 56.726562 72.605469 56.671875 C 72.757812 55.5625 72.910156 54.457031 73.0625 53.347656 C 73.363281 51.171875 73.679688 48.996094 73.976562 46.820312 C 74.121094 45.753906 74.265625 44.683594 74.410156 43.617188 C 74.554688 42.539062 74.765625 41.445312 74.816406 40.355469 C 74.902344 38.515625 73.945312 37.082031 72.578125 35.917969 Z M 75.394531 31.753906 C 75.21875 31.535156 75.074219 31.296875 74.925781 31.066406 C 74.839844 30.9375 74.753906 30.808594 74.664062 30.683594 C 74.5625 30.542969 74.234375 30.566406 74.261719 30.785156 C 74.289062 31 74.351562 31.207031 74.445312 31.410156 C 74.53125 31.589844 74.644531 31.765625 74.773438 31.929688 C 75.128906 32.382812 75.628906 32.742188 76.136719 32.921875 C 76.246094 32.960938 76.46875 32.835938 76.34375 32.710938 C 76.019531 32.402344 75.679688 32.105469 75.394531 31.753906 Z M 76.878906 18.894531 C 76.304688 19.28125 75.761719 19.671875 75.082031 19.851562 C 74.480469 20.007812 73.902344 19.921875 73.296875 19.96875 C 73.15625 19.980469 73.070312 20.144531 73.199219 20.234375 C 73.785156 20.648438 74.746094 20.542969 75.398438 20.371094 C 76.148438 20.171875 76.875 19.78125 77.292969 19.113281 C 77.441406 18.871094 77.019531 18.796875 76.878906 18.894531 Z M 76.511719 20.910156 C 76.273438 21.101562 76.035156 21.304688 75.746094 21.421875 C 75.453125 21.546875 75.140625 21.507812 74.84375 21.605469 C 74.765625 21.632812 74.691406 21.734375 74.769531 21.804688 C 75.035156 22.058594 75.542969 21.976562 75.863281 21.878906 C 76.269531 21.753906 76.667969 21.5 76.835938 21.09375 C 76.910156 20.910156 76.648438 20.796875 76.511719 20.910156 Z M 75.179688 13.683594 C 75.179688 14.382812 75.453125 14.953125 75.789062 14.953125 C 76.125 14.953125 76.398438 14.382812 76.398438 13.683594 C 76.398438 12.980469 76.125 12.414062 75.789062 12.414062 C 75.453125 12.414062 75.179688 12.980469 75.179688 13.683594 Z M 83.757812 16.457031 C 83.886719 16.445312 83.988281 16.402344 84.101562 16.34375 C 84.175781 16.300781 84.242188 16.253906 84.3125 16.207031 C 84.496094 16.265625 84.683594 16.324219 84.871094 16.382812 C 85.085938 16.683594 84.617188 17.125 84.40625 17.269531 C 84.226562 17.394531 84.023438 17.480469 83.835938 17.585938 C 83.472656 17.789062 83.761719 18.132812 84.097656 18.015625 C 84.710938 17.800781 85.394531 17.355469 85.492188 16.65625 C 85.566406 16.140625 85.214844 15.640625 84.683594 15.574219 C 84.335938 15.527344 84.171875 15.78125 83.871094 15.828125 C 83.789062 15.902344 83.773438 15.882812 83.820312 15.773438 C 83.847656 15.636719 83.886719 15.5 83.933594 15.371094 C 83.996094 15.199219 84.066406 15.03125 84.152344 14.871094 C 84.378906 14.441406 84.699219 14.039062 85.066406 13.71875 C 85.300781 13.511719 85.585938 13.359375 85.753906 13.09375 C 85.816406 13 85.699219 12.941406 85.625 12.945312 C 85.214844 12.953125 84.816406 13.160156 84.464844 13.46875 C 84.324219 13.59375 84.191406 13.730469 84.066406 13.878906 C 83.597656 14.4375 83.257812 15.136719 83.144531 15.660156 C 83.050781 16.101562 83.25 16.507812 83.757812 16.457031 Z M 82.074219 29.394531 C 80.773438 29.78125 79.414062 30.460938 78.53125 31.476562 C 78.382812 31.644531 78.25 31.824219 78.128906 32.011719 C 77.722656 32.660156 77.5 33.421875 77.570312 34.308594 C 77.59375 34.613281 77.054688 34.742188 76.988281 34.429688 C 76.710938 33.199219 77.136719 32.0625 77.894531 31.148438 C 78.066406 30.945312 78.253906 30.746094 78.453125 30.566406 L 78.214844 27.683594 C 78.160156 27.027344 78.097656 26.285156 77.976562 25.574219 L 77.976562 25.570312 C 77.914062 25.195312 77.839844 24.863281 77.753906 24.546875 C 77.683594 24.296875 77.585938 24.042969 77.351562 23.878906 C 77.167969 23.75 76.933594 23.703125 76.632812 23.738281 C 76.140625 23.785156 75.679688 23.96875 75.234375 24.148438 C 74.648438 24.382812 74.097656 24.601562 73.558594 24.480469 C 72.664062 24.28125 72.210938 23.21875 72.082031 22.292969 C 72.046875 22.019531 72.023438 21.734375 72 21.457031 C 71.933594 20.65625 71.867188 19.832031 71.460938 19.097656 C 71.171875 18.578125 70.753906 18.175781 70.347656 17.78125 C 70.128906 17.570312 69.921875 17.371094 69.734375 17.152344 C 69.625 17.027344 69.515625 16.882812 69.507812 16.746094 C 69.492188 16.511719 69.789062 16.300781 70.09375 16.210938 C 70.199219 16.179688 70.3125 16.15625 70.425781 16.128906 C 70.738281 16.0625 71.089844 15.984375 71.382812 15.761719 C 72.238281 15.117188 71.976562 13.871094 71.605469 12.9375 C 71.425781 12.480469 71.246094 12.019531 71.0625 11.566406 C 71.0625 11.558594 71.058594 11.554688 71.054688 11.550781 L 71.054688 11.546875 C 71.113281 11.339844 71.167969 11.128906 71.222656 10.917969 C 73.339844 10.59375 75.441406 10.492188 77.566406 10.921875 C 78.011719 11.011719 78.449219 11.125 78.871094 11.257812 C 78.828125 11.714844 78.734375 12.171875 78.597656 12.613281 C 78.402344 13.238281 77.894531 14.191406 78.679688 14.640625 C 79.328125 15.015625 80.042969 14.324219 80.492188 13.925781 C 80.976562 13.496094 81.40625 13.011719 81.769531 12.484375 C 82.179688 12.703125 82.582031 12.9375 82.984375 13.183594 C 82.933594 13.269531 82.890625 13.355469 82.851562 13.441406 C 82.785156 13.574219 82.992188 13.644531 83.074219 13.554688 C 83.132812 13.488281 83.195312 13.421875 83.257812 13.351562 C 83.402344 13.191406 83.566406 13.019531 83.734375 12.855469 C 84.4375 12.175781 85.316406 11.601562 86.246094 12.175781 C 87.105469 12.703125 87.382812 14.074219 87.429688 15.089844 C 87.433594 15.21875 87.4375 15.34375 87.433594 15.457031 C 87.433594 15.480469 87.433594 15.5 87.433594 15.523438 C 87.414062 16.636719 86.996094 17.746094 86.109375 18.460938 C 85.15625 19.230469 83.769531 19.34375 82.71875 18.710938 C 82.515625 18.589844 82.097656 18.882812 82.34375 19.054688 C 82.539062 19.191406 82.738281 19.300781 82.949219 19.390625 C 82.503906 19.84375 82.515625 20.613281 82.800781 21.15625 C 83.003906 21.542969 83.335938 21.824219 83.730469 21.972656 C 83.753906 22.199219 83.785156 22.421875 83.816406 22.640625 L 83.816406 22.644531 C 83.910156 23.339844 84.039062 24.042969 84.203125 24.738281 C 84.207031 24.742188 84.207031 24.746094 84.207031 24.75 C 84.078125 25.222656 83.964844 25.699219 83.8125 26.164062 C 83.535156 27.003906 83.1875 27.820312 82.78125 28.605469 C 82.984375 28.558594 83.1875 28.511719 83.386719 28.46875 C 83.476562 28.449219 83.5625 28.429688 83.652344 28.410156 C 84.300781 28.265625 84.984375 28.105469 85.53125 27.707031 C 85.941406 27.402344 86.167969 26.984375 86.488281 26.601562 C 86.539062 26.539062 86.660156 26.535156 86.679688 26.628906 C 86.84375 27.421875 85.933594 28.097656 85.324219 28.417969 C 84.324219 28.941406 83.148438 29.078125 82.074219 29.394531 Z M 68.835938 9.167969 C 68.578125 7.921875 68.898438 6.6875 69.652344 5.675781 C 69.789062 5.492188 70.261719 5.597656 70.117188 5.851562 C 69.566406 6.800781 69.304688 7.925781 69.496094 9.015625 C 69.582031 9.535156 69.773438 10.027344 70.035156 10.488281 C 70.167969 10.726562 70.34375 10.9375 70.507812 11.15625 C 70.511719 11.113281 70.519531 11.074219 70.523438 11.03125 C 70.539062 10.921875 70.558594 10.8125 70.578125 10.703125 C 70.789062 9.511719 71.238281 8.3125 71.695312 7.234375 C 71.898438 6.75 72.121094 6.226562 72.375 5.710938 C 72.453125 5.546875 72.539062 5.386719 72.625 5.226562 C 73.015625 4.5 73.476562 3.808594 74.042969 3.292969 C 74.117188 3.226562 74.386719 3.230469 74.324219 3.386719 C 74.09375 3.988281 73.707031 4.542969 73.378906 5.105469 C 74.445312 4.980469 75.554688 5.039062 76.644531 5.226562 C 76.253906 4.863281 75.835938 4.535156 75.398438 4.183594 C 75.296875 4.105469 75.429688 4.003906 75.519531 4.039062 C 76.253906 4.316406 76.941406 4.808594 77.527344 5.40625 C 77.773438 5.652344 78 5.921875 78.207031 6.199219 C 78.476562 6.5625 78.707031 6.945312 78.894531 7.324219 C 79.425781 8.40625 79.664062 9.601562 79.621094 10.792969 C 79.613281 11.023438 79.59375 11.257812 79.5625 11.484375 C 79.527344 11.746094 79.480469 12.003906 79.417969 12.261719 C 79.308594 12.722656 79.035156 13.199219 78.988281 13.664062 C 78.992188 13.753906 78.996094 13.84375 79 13.933594 C 79.144531 14.152344 79.292969 14.164062 79.4375 13.976562 C 79.589844 13.90625 79.734375 13.75 79.863281 13.644531 C 80.367188 13.21875 80.804688 12.722656 81.175781 12.179688 C 81.261719 12.054688 81.339844 11.929688 81.417969 11.804688 C 81.46875 11.71875 81.519531 11.632812 81.566406 11.546875 C 82.117188 10.550781 82.429688 9.433594 82.511719 8.296875 C 82.527344 8.042969 82.535156 7.789062 82.527344 7.535156 C 82.527344 7.3125 82.511719 7.09375 82.488281 6.875 C 82.453125 6.53125 83.082031 6.375 83.136719 6.722656 C 83.210938 7.160156 83.242188 7.59375 83.234375 8.027344 C 84.550781 9.015625 85.699219 10.21875 86.589844 11.609375 C 86.617188 11.652344 86.628906 11.691406 86.628906 11.730469 C 87.628906 12.324219 87.972656 13.730469 88.0625 14.847656 C 88.835938 14.515625 89.507812 14.054688 90.003906 13.265625 C 90.753906 12.066406 90.589844 10.8125 90.488281 9.480469 C 90.46875 9.230469 90.832031 9.167969 90.960938 9.347656 C 91.871094 10.59375 91.390625 12.53125 90.539062 13.6875 C 89.976562 14.445312 89.066406 15.144531 88.085938 15.414062 C 88.074219 16.835938 87.472656 18.230469 86.246094 19.039062 C 85.34375 19.632812 84.21875 19.804688 83.21875 19.488281 C 83.144531 19.96875 83.019531 20.414062 83.273438 20.878906 C 83.375 21.066406 83.507812 21.214844 83.667969 21.335938 C 83.855469 21.472656 84.070312 21.570312 84.304688 21.632812 C 84.355469 21.644531 84.40625 21.65625 84.457031 21.667969 C 84.761719 21.730469 84.59375 22.078125 84.355469 22.09375 C 84.367188 22.210938 84.382812 22.320312 84.398438 22.4375 C 84.753906 22.695312 85.136719 22.90625 85.539062 23.066406 C 85.855469 23.191406 86.222656 23.210938 86.425781 23.113281 C 86.503906 23.074219 86.550781 23.023438 86.574219 22.949219 C 86.613281 22.820312 86.554688 22.652344 86.484375 22.460938 C 86.40625 22.234375 86.316406 21.980469 86.359375 21.699219 C 86.457031 21.09375 87.0625 20.828125 87.503906 20.632812 L 87.558594 20.609375 C 88.785156 20.070312 89.789062 18.933594 90.246094 17.574219 C 90.257812 17.542969 90.273438 17.515625 90.292969 17.488281 C 90.496094 16.726562 90.574219 15.949219 90.496094 15.109375 C 90.488281 14.984375 90.726562 14.9375 90.761719 15.058594 C 90.972656 15.789062 91.011719 16.574219 90.871094 17.324219 C 91.597656 17.179688 92.289062 16.703125 92.660156 16.070312 C 93.253906 15.0625 93.34375 13.75 92.949219 11.933594 C 92.257812 8.769531 90.703125 5.757812 88.457031 3.222656 C 87.078125 1.671875 85.789062 0.914062 84.519531 0.910156 C 83.652344 0.902344 82.835938 1.25 81.972656 1.617188 C 81.734375 1.714844 81.488281 1.820312 81.246094 1.914062 C 79.722656 2.5 78.445312 2.496094 77.542969 1.894531 C 77.320312 1.742188 77.128906 1.5625 76.941406 1.386719 C 76.746094 1.203125 76.558594 1.027344 76.347656 0.902344 C 75.90625 0.640625 75.386719 0.617188 75.023438 0.644531 C 73.207031 0.789062 71.765625 2.316406 70.554688 3.734375 C 69.421875 5.0625 67.871094 6.882812 65.742188 7.140625 L 65.710938 7.144531 C 65.621094 7.15625 65.523438 7.164062 65.484375 7.195312 C 65.414062 7.25 65.4375 7.460938 65.539062 7.6875 C 66.328125 9.410156 67.957031 10.71875 69.839844 11.203125 C 69.3125 10.644531 68.972656 9.835938 68.835938 9.167969 Z M 92.703125 43.425781 C 91.207031 46.015625 90.113281 48.847656 89.347656 51.742188 C 89.019531 50.863281 88.675781 49.984375 88.351562 49.109375 C 87.675781 47.285156 86.996094 45.464844 86.320312 43.644531 C 85.976562 42.714844 85.621094 41.789062 85.269531 40.859375 C 84.957031 40.03125 84.589844 39.191406 84.539062 38.296875 C 84.449219 36.59375 85.398438 35.023438 85.203125 33.3125 C 85.183594 33.140625 84.886719 33.183594 84.882812 33.347656 C 84.835938 35.066406 83.949219 36.664062 84.023438 38.390625 C 84.0625 39.328125 84.433594 40.210938 84.75 41.085938 C 85.085938 42.019531 85.417969 42.953125 85.757812 43.886719 C 86.441406 45.746094 87.125 47.609375 87.808594 49.472656 C 88.226562 50.617188 88.625 51.769531 89.054688 52.910156 C 88.6875 54.476562 88.414062 56.066406 88.242188 57.667969 C 88.191406 58.140625 88.148438 58.621094 88.117188 59.097656 C 88.105469 59.300781 88.09375 59.507812 88.082031 59.710938 C 88.3125 59.679688 88.535156 59.644531 88.761719 59.601562 C 88.773438 59.398438 88.785156 59.191406 88.800781 58.988281 C 88.832031 58.578125 88.871094 58.167969 88.910156 57.757812 C 89.042969 56.492188 89.226562 55.238281 89.476562 53.988281 C 89.542969 53.648438 89.613281 53.308594 89.691406 52.976562 C 89.703125 52.914062 89.71875 52.847656 89.734375 52.785156 C 90.472656 49.578125 91.632812 46.519531 93 43.523438 C 93.082031 43.347656 92.785156 43.285156 92.703125 43.425781 Z M 94.417969 37.371094 C 94.328125 37.285156 94.242188 37.1875 94.164062 37.085938 C 93.847656 36.675781 93.621094 36.171875 93.367188 35.730469 C 93.027344 35.144531 92.691406 34.558594 92.363281 33.972656 C 91.871094 33.101562 91.382812 32.226562 90.90625 31.34375 C 90.855469 31.257812 90.808594 31.171875 90.761719 31.085938 C 90.375 31.003906 89.984375 30.9375 89.582031 30.902344 C 88.371094 30.792969 87.144531 30.902344 85.964844 31.199219 C 83.84375 31.734375 82.125 32.910156 80.503906 34.320312 C 80.414062 34.398438 80.148438 34.34375 80.25 34.203125 C 81.550781 32.410156 83.699219 31.203125 85.816406 30.632812 C 87.027344 30.308594 88.304688 30.199219 89.554688 30.277344 C 89.820312 30.296875 90.089844 30.320312 90.363281 30.351562 C 90.472656 30.363281 90.585938 30.378906 90.699219 30.394531 C 91.585938 30.527344 92.476562 30.765625 93.214844 31.214844 C 93.507812 31.390625 93.195312 31.695312 92.945312 31.636719 C 92.355469 31.496094 91.777344 31.328125 91.199219 31.1875 C 91.742188 32.050781 92.277344 32.917969 92.8125 33.789062 C 93.171875 34.382812 93.53125 34.976562 93.886719 35.574219 C 93.898438 35.589844 93.90625 35.609375 93.917969 35.625 C 94.105469 35.945312 94.335938 36.269531 94.519531 36.609375 C 94.628906 36.816406 94.71875 37.023438 94.773438 37.242188 C 94.816406 37.425781 94.515625 37.464844 94.417969 37.371094 " fill-opacity="1" fill-rule="nonzero"/><g clip-path="url(#83820ce761)"><path fill="#0f0e0c" d="M 75.179688 13.683594 C 75.179688 12.980469 75.453125 12.414062 75.789062 12.414062 C 76.125 12.414062 76.398438 12.980469 76.398438 13.683594 C 76.398438 14.382812 76.125 14.953125 75.789062 14.953125 C 75.453125 14.953125 75.179688 14.382812 75.179688 13.683594 Z M 76.835938 21.09375 C 76.667969 21.5 76.269531 21.753906 75.863281 21.878906 C 75.542969 21.976562 75.035156 22.058594 74.769531 21.804688 C 74.691406 21.734375 74.765625 21.632812 74.84375 21.605469 C 75.140625 21.507812 75.453125 21.546875 75.746094 21.421875 C 76.035156 21.304688 76.273438 21.101562 76.511719 20.910156 C 76.648438 20.796875 76.910156 20.910156 76.835938 21.09375 Z M 77.292969 19.113281 C 76.875 19.78125 76.148438 20.171875 75.398438 20.371094 C 74.746094 20.542969 73.785156 20.648438 73.199219 20.234375 C 73.070312 20.144531 73.15625 19.980469 73.296875 19.96875 C 73.902344 19.921875 74.480469 20.007812 75.082031 19.851562 C 75.761719 19.671875 76.304688 19.28125 76.878906 18.894531 C 77.019531 18.796875 77.441406 18.871094 77.292969 19.113281 Z M 83.144531 15.660156 C 83.257812 15.136719 83.597656 14.4375 84.066406 13.878906 C 84.191406 13.730469 84.324219 13.59375 84.464844 13.46875 C 84.816406 13.160156 85.214844 12.953125 85.625 12.945312 C 85.699219 12.941406 85.816406 13 85.753906 13.09375 C 85.585938 13.359375 85.300781 13.511719 85.066406 13.71875 C 84.699219 14.039062 84.378906 14.441406 84.152344 14.871094 C 84.066406 15.03125 83.996094 15.199219 83.933594 15.371094 C 83.886719 15.5 83.847656 15.636719 83.820312 15.773438 C 83.773438 15.882812 83.789062 15.902344 83.871094 15.828125 C 84.171875 15.78125 84.335938 15.527344 84.683594 15.574219 C 85.214844 15.640625 85.566406 16.140625 85.492188 16.65625 C 85.394531 17.355469 84.710938 17.800781 84.097656 18.015625 C 83.761719 18.132812 83.472656 17.789062 83.835938 17.585938 C 84.023438 17.480469 84.226562 17.394531 84.40625 17.269531 C 84.617188 17.125 85.085938 16.683594 84.871094 16.382812 C 84.683594 16.324219 84.496094 16.265625 84.3125 16.207031 C 84.242188 16.253906 84.175781 16.300781 84.101562 16.34375 C 83.988281 16.402344 83.886719 16.445312 83.757812 16.457031 C 83.25 16.507812 83.050781 16.101562 83.144531 15.660156 Z M 92.363281 33.972656 C 91.871094 33.101562 91.382812 32.226562 90.90625 31.34375 C 90.855469 31.257812 90.808594 31.171875 90.761719 31.085938 C 90.375 31.003906 89.984375 30.9375 89.582031 30.902344 C 88.371094 30.792969 87.144531 30.902344 85.964844 31.199219 C 83.84375 31.734375 82.125 32.910156 80.503906 34.320312 C 80.414062 34.398438 80.148438 34.34375 80.25 34.203125 C 81.550781 32.410156 83.699219 31.203125 85.816406 30.632812 C 87.027344 30.308594 88.304688 30.199219 89.554688 30.277344 C 89.820312 30.296875 90.089844 30.320312 90.363281 30.351562 C 90.472656 30.363281 90.585938 30.378906 90.699219 30.394531 C 91.585938 30.527344 92.476562 30.765625 93.214844 31.214844 C 93.507812 31.390625 93.195312 31.695312 92.945312 31.636719 C 92.355469 31.496094 91.777344 31.328125 91.199219 31.1875 C 91.742188 32.050781 92.277344 32.917969 92.8125 33.789062 C 93.171875 34.382812 93.53125 34.976562 93.886719 35.574219 C 93.898438 35.589844 93.90625 35.609375 93.917969 35.625 C 94.105469 35.945312 94.335938 36.269531 94.519531 36.609375 C 94.628906 36.816406 94.71875 37.023438 94.773438 37.242188 C 94.816406 37.425781 94.515625 37.464844 94.417969 37.371094 C 94.328125 37.285156 94.242188 37.1875 94.164062 37.085938 C 93.847656 36.675781 93.621094 36.171875 93.367188 35.730469 C 93.027344 35.144531 92.691406 34.558594 92.363281 33.972656 Z M 74.773438 31.929688 C 74.644531 31.765625 74.53125 31.589844 74.449219 31.410156 C 74.351562 31.207031 74.289062 31 74.261719 30.785156 C 74.234375 30.566406 74.5625 30.542969 74.664062 30.683594 C 74.753906 30.808594 74.839844 30.9375 74.925781 31.066406 C 75.074219 31.296875 75.21875 31.535156 75.394531 31.753906 C 75.679688 32.105469 76.019531 32.402344 76.34375 32.710938 C 76.46875 32.835938 76.246094 32.960938 76.136719 32.921875 C 75.628906 32.742188 75.132812 32.382812 74.773438 31.929688 Z M 76.632812 23.738281 C 76.140625 23.785156 75.679688 23.96875 75.234375 24.148438 C 74.648438 24.382812 74.097656 24.601562 73.558594 24.480469 C 72.667969 24.28125 72.210938 23.21875 72.082031 22.292969 C 72.046875 22.019531 72.023438 21.734375 72 21.457031 C 71.933594 20.65625 71.867188 19.832031 71.460938 19.097656 C 71.171875 18.578125 70.753906 18.175781 70.347656 17.78125 C 70.128906 17.570312 69.921875 17.371094 69.734375 17.152344 C 69.625 17.027344 69.515625 16.882812 69.507812 16.746094 C 69.492188 16.511719 69.792969 16.300781 70.09375 16.210938 C 70.199219 16.179688 70.3125 16.15625 70.425781 16.128906 C 70.738281 16.0625 71.089844 15.984375 71.382812 15.761719 C 72.238281 15.117188 71.976562 13.871094 71.605469 12.9375 C 71.425781 12.480469 71.246094 12.019531 71.0625 11.566406 C 71.0625 11.558594 71.058594 11.554688 71.054688 11.550781 L 71.054688 11.546875 C 71.113281 11.339844 71.167969 11.128906 71.222656 10.917969 C 73.339844 10.59375 75.441406 10.492188 77.566406 10.921875 C 78.015625 11.011719 78.449219 11.125 78.871094 11.257812 C 78.828125 11.714844 78.734375 12.171875 78.597656 12.613281 C 78.402344 13.238281 77.898438 14.191406 78.679688 14.640625 C 79.328125 15.015625 80.042969 14.324219 80.496094 13.925781 C 80.976562 13.496094 81.40625 13.011719 81.769531 12.484375 C 82.179688 12.703125 82.582031 12.9375 82.984375 13.183594 C 82.933594 13.269531 82.890625 13.355469 82.851562 13.441406 C 82.789062 13.574219 82.992188 13.644531 83.074219 13.554688 C 83.132812 13.488281 83.195312 13.421875 83.257812 13.351562 C 83.40625 13.191406 83.566406 13.019531 83.738281 12.855469 C 84.4375 12.175781 85.320312 11.601562 86.246094 12.175781 C 87.105469 12.703125 87.382812 14.074219 87.429688 15.089844 C 87.433594 15.21875 87.4375 15.34375 87.433594 15.457031 C 87.433594 15.480469 87.433594 15.5 87.433594 15.523438 C 87.414062 16.636719 87 17.746094 86.109375 18.460938 C 85.15625 19.230469 83.773438 19.34375 82.71875 18.710938 C 82.515625 18.589844 82.097656 18.882812 82.34375 19.054688 C 82.539062 19.191406 82.738281 19.300781 82.949219 19.390625 C 82.503906 19.84375 82.515625 20.613281 82.800781 21.15625 C 83.007812 21.542969 83.339844 21.824219 83.730469 21.972656 C 83.753906 22.199219 83.785156 22.421875 83.816406 22.640625 L 83.816406 22.644531 C 83.910156 23.339844 84.039062 24.042969 84.203125 24.738281 C 84.207031 24.742188 84.207031 24.746094 84.207031 24.75 C 84.078125 25.222656 83.964844 25.699219 83.8125 26.164062 C 83.535156 27.003906 83.1875 27.820312 82.78125 28.605469 C 82.984375 28.558594 83.1875 28.511719 83.390625 28.46875 C 83.476562 28.449219 83.5625 28.429688 83.652344 28.410156 C 84.300781 28.265625 84.984375 28.105469 85.53125 27.707031 C 85.941406 27.402344 86.167969 26.984375 86.488281 26.601562 C 86.539062 26.539062 86.660156 26.535156 86.679688 26.628906 C 86.84375 27.421875 85.933594 28.097656 85.324219 28.417969 C 84.324219 28.941406 83.148438 29.078125 82.074219 29.394531 C 80.777344 29.78125 79.414062 30.460938 78.53125 31.476562 C 78.382812 31.644531 78.25 31.824219 78.132812 32.011719 C 77.722656 32.660156 77.5 33.421875 77.570312 34.308594 C 77.59375 34.613281 77.054688 34.742188 76.988281 34.429688 C 76.710938 33.199219 77.136719 32.0625 77.894531 31.148438 C 78.066406 30.945312 78.253906 30.746094 78.453125 30.566406 L 78.214844 27.683594 C 78.160156 27.027344 78.097656 26.285156 77.976562 25.574219 L 77.976562 25.570312 C 77.914062 25.195312 77.839844 24.863281 77.753906 24.546875 C 77.683594 24.296875 77.585938 24.042969 77.351562 23.878906 C 77.167969 23.75 76.933594 23.703125 76.632812 23.738281 Z M 70.574219 10.703125 C 70.558594 10.8125 70.539062 10.921875 70.523438 11.03125 C 70.519531 11.074219 70.511719 11.113281 70.507812 11.15625 C 70.34375 10.9375 70.167969 10.726562 70.035156 10.488281 C 69.773438 10.027344 69.582031 9.535156 69.492188 9.015625 C 69.304688 7.925781 69.566406 6.800781 70.117188 5.851562 C 70.261719 5.597656 69.789062 5.492188 69.652344 5.675781 C 68.894531 6.6875 68.578125 7.921875 68.835938 9.167969 C 68.972656 9.835938 69.3125 10.644531 69.839844 11.203125 C 67.957031 10.71875 66.328125 9.410156 65.539062 7.6875 C 65.4375 7.460938 65.414062 7.25 65.484375 7.195312 C 65.523438 7.164062 65.621094 7.15625 65.710938 7.144531 L 65.742188 7.140625 C 67.871094 6.882812 69.421875 5.0625 70.554688 3.734375 C 71.765625 2.316406 73.207031 0.789062 75.023438 0.644531 C 75.382812 0.617188 75.90625 0.640625 76.34375 0.902344 C 76.558594 1.027344 76.742188 1.203125 76.941406 1.386719 C 77.128906 1.5625 77.320312 1.742188 77.542969 1.894531 C 78.445312 2.496094 79.722656 2.5 81.246094 1.914062 C 81.488281 1.820312 81.734375 1.714844 81.972656 1.617188 C 82.835938 1.25 83.652344 0.902344 84.519531 0.910156 C 85.789062 0.914062 87.078125 1.671875 88.457031 3.222656 C 90.703125 5.757812 92.257812 8.769531 92.949219 11.933594 C 93.34375 13.75 93.253906 15.0625 92.660156 16.070312 C 92.289062 16.703125 91.597656 17.179688 90.871094 17.324219 C 91.011719 16.574219 90.972656 15.792969 90.761719 15.058594 C 90.726562 14.941406 90.488281 14.984375 90.496094 15.109375 C 90.574219 15.949219 90.496094 16.726562 90.292969 17.488281 C 90.273438 17.515625 90.257812 17.542969 90.246094 17.574219 C 89.789062 18.933594 88.78125 20.070312 87.558594 20.609375 L 87.503906 20.632812 C 87.0625 20.828125 86.457031 21.09375 86.359375 21.699219 C 86.316406 21.980469 86.402344 22.234375 86.484375 22.460938 C 86.554688 22.652344 86.613281 22.820312 86.574219 22.949219 C 86.550781 23.023438 86.503906 23.074219 86.425781 23.113281 C 86.222656 23.210938 85.855469 23.191406 85.535156 23.066406 C 85.136719 22.90625 84.753906 22.695312 84.398438 22.4375 C 84.382812 22.324219 84.367188 22.210938 84.355469 22.09375 C 84.59375 22.078125 84.761719 21.730469 84.453125 21.667969 C 84.402344 21.65625 84.355469 21.644531 84.304688 21.632812 C 84.070312 21.570312 83.855469 21.472656 83.667969 21.335938 C 83.507812 21.214844 83.371094 21.066406 83.273438 20.878906 C 83.019531 20.414062 83.144531 19.96875 83.21875 19.488281 C 84.21875 19.804688 85.34375 19.632812 86.246094 19.039062 C 87.472656 18.230469 88.074219 16.835938 88.085938 15.414062 C 89.066406 15.144531 89.976562 14.445312 90.539062 13.6875 C 91.390625 12.53125 91.871094 10.59375 90.960938 9.347656 C 90.828125 9.167969 90.46875 9.230469 90.488281 9.480469 C 90.589844 10.8125 90.753906 12.066406 90.003906 13.265625 C 89.507812 14.054688 88.835938 14.515625 88.0625 14.847656 C 87.972656 13.730469 87.628906 12.324219 86.628906 11.730469 C 86.628906 11.691406 86.617188 11.652344 86.589844 11.609375 C 85.699219 10.21875 84.550781 9.015625 83.234375 8.027344 C 83.242188 7.59375 83.210938 7.160156 83.136719 6.722656 C 83.082031 6.375 82.453125 6.53125 82.488281 6.875 C 82.511719 7.09375 82.523438 7.3125 82.527344 7.535156 C 82.535156 7.789062 82.527344 8.042969 82.511719 8.296875 C 82.429688 9.433594 82.117188 10.550781 81.566406 11.546875 C 81.519531 11.632812 81.46875 11.71875 81.417969 11.804688 C 81.339844 11.929688 81.257812 12.054688 81.175781 12.179688 C 80.804688 12.722656 80.367188 13.21875 79.863281 13.644531 C 79.734375 13.75 79.589844 13.90625 79.4375 13.976562 C 79.292969 14.167969 79.144531 14.152344 79 13.933594 C 78.996094 13.84375 78.992188 13.753906 78.988281 13.664062 C 79.03125 13.199219 79.308594 12.722656 79.417969 12.261719 C 79.480469 12.003906 79.527344 11.746094 79.5625 11.484375 C 79.59375 11.257812 79.613281 11.023438 79.621094 10.792969 C 79.664062 9.601562 79.425781 8.40625 78.894531 7.324219 C 78.707031 6.945312 78.476562 6.5625 78.207031 6.199219 C 78 5.921875 77.773438 5.652344 77.527344 5.40625 C 76.941406 4.808594 76.253906 4.316406 75.519531 4.039062 C 75.429688 4.003906 75.296875 4.105469 75.398438 4.183594 C 75.835938 4.535156 76.253906 4.863281 76.644531 5.226562 C 75.554688 5.039062 74.445312 4.980469 73.378906 5.105469 C 73.707031 4.542969 74.09375 3.988281 74.324219 3.386719 C 74.386719 3.230469 74.113281 3.226562 74.042969 3.292969 C 73.476562 3.808594 73.015625 4.5 72.625 5.226562 C 72.535156 5.386719 72.453125 5.546875 72.375 5.710938 C 72.121094 6.226562 71.898438 6.753906 71.695312 7.234375 C 71.238281 8.3125 70.789062 9.511719 70.574219 10.703125 Z M 101.691406 47.65625 C 101.359375 46.816406 100.800781 46.101562 100.261719 45.410156 L 100.152344 45.265625 C 98.042969 42.554688 96.171875 39.632812 94.582031 36.578125 C 94.496094 36.417969 94.414062 36.261719 94.332031 36.097656 C 94.441406 35.78125 94.589844 35.46875 94.746094 35.140625 C 95.039062 34.535156 95.339844 33.90625 95.375 33.199219 C 95.421875 32.183594 94.898438 31.113281 93.890625 30.1875 C 93.488281 29.8125 93.042969 29.484375 92.613281 29.167969 C 92.195312 28.859375 91.761719 28.539062 91.378906 28.183594 C 90.917969 27.757812 90.503906 27.257812 90.105469 26.773438 C 89.875 26.496094 89.636719 26.207031 89.386719 25.933594 C 88.5 24.953125 87.675781 24.375 86.789062 24.125 C 86.167969 23.945312 85.507812 23.957031 84.929688 24.144531 C 84.855469 24.167969 84.78125 24.195312 84.710938 24.226562 C 84.671875 24.050781 84.636719 23.871094 84.601562 23.695312 C 84.570312 23.542969 84.542969 23.390625 84.515625 23.234375 C 84.773438 23.386719 85.039062 23.515625 85.3125 23.625 C 85.679688 23.765625 86.257812 23.863281 86.6875 23.65625 C 86.917969 23.542969 87.078125 23.359375 87.152344 23.125 C 87.25 22.808594 87.144531 22.515625 87.054688 22.261719 C 86.996094 22.085938 86.9375 21.925781 86.957031 21.792969 C 87 21.511719 87.398438 21.335938 87.75 21.183594 L 87.800781 21.160156 C 89.144531 20.566406 90.210938 19.40625 90.753906 17.953125 C 91.730469 17.832031 92.6875 17.21875 93.183594 16.375 C 93.859375 15.226562 93.972656 13.777344 93.539062 11.804688 C 92.824219 8.542969 91.226562 5.4375 88.910156 2.824219 C 87.410156 1.136719 85.972656 0.3125 84.519531 0.308594 C 84.515625 0.308594 84.507812 0.308594 84.503906 0.308594 C 83.519531 0.308594 82.609375 0.691406 81.734375 1.0625 C 81.503906 1.160156 81.261719 1.261719 81.023438 1.351562 C 80.097656 1.710938 78.800781 2.007812 77.878906 1.394531 C 77.699219 1.273438 77.53125 1.117188 77.359375 0.953125 C 77.144531 0.753906 76.925781 0.542969 76.65625 0.386719 C 76.199219 0.113281 75.617188 -0.00390625 74.976562 0.046875 C 72.929688 0.207031 71.382812 1.832031 70.089844 3.347656 C 68.757812 4.910156 67.414062 6.332031 65.667969 6.542969 L 65.636719 6.546875 C 65.480469 6.566406 65.285156 6.585938 65.113281 6.71875 C 64.796875 6.957031 64.75 7.410156 64.988281 7.9375 C 65.964844 10.066406 68.101562 11.613281 70.492188 11.941406 C 70.519531 11.976562 70.550781 11.996094 70.589844 12.007812 C 70.738281 12.390625 70.894531 12.777344 71.042969 13.160156 C 71.335938 13.898438 71.570312 14.867188 71.015625 15.285156 C 70.832031 15.425781 70.570312 15.484375 70.296875 15.542969 C 70.175781 15.570312 70.050781 15.597656 69.925781 15.632812 C 69.390625 15.789062 68.867188 16.207031 68.902344 16.785156 C 68.921875 17.101562 69.101562 17.347656 69.273438 17.546875 C 69.480469 17.78125 69.707031 18 69.925781 18.214844 C 70.320312 18.589844 70.6875 18.949219 70.929688 19.386719 C 71.273438 20.007812 71.332031 20.734375 71.398438 21.503906 C 71.417969 21.789062 71.445312 22.082031 71.484375 22.371094 C 71.636719 23.496094 72.230469 24.796875 73.421875 25.066406 C 74.148438 25.230469 74.816406 24.964844 75.460938 24.707031 C 75.886719 24.539062 76.289062 24.375 76.695312 24.335938 C 76.84375 24.320312 76.949219 24.332031 77.007812 24.371094 C 77.082031 24.425781 77.128906 24.566406 77.167969 24.707031 C 77.234375 24.945312 77.292969 25.195312 77.34375 25.46875 C 76.554688 25.933594 75.757812 26.46875 75.125 27.183594 C 74.179688 28.25 73.808594 29.558594 74.125 30.6875 C 74.191406 30.917969 74.285156 31.152344 74.425781 31.417969 C 74.113281 31.757812 73.746094 32.074219 73.363281 32.402344 C 72.726562 32.941406 72.070312 33.503906 71.640625 34.230469 C 71.316406 34.78125 71.136719 35.402344 70.976562 35.949219 C 70.152344 38.789062 69.21875 42.003906 69.738281 45.175781 C 69.777344 45.414062 69.824219 45.65625 69.871094 45.890625 C 70.035156 46.707031 70.1875 47.480469 70.023438 48.230469 C 69.933594 48.648438 69.742188 49.039062 69.542969 49.457031 C 69.417969 49.71875 69.289062 49.992188 69.183594 50.273438 C 68.578125 51.886719 68.867188 53.550781 69.210938 54.664062 C 69.335938 55.058594 69.488281 55.460938 69.675781 55.894531 C 69.703125 55.953125 69.742188 56 69.796875 56.03125 C 70.488281 56.445312 71.191406 56.832031 71.914062 57.183594 C 71.941406 57.007812 71.964844 56.839844 71.988281 56.671875 C 71.992188 56.632812 71.996094 56.59375 72.003906 56.554688 C 72.132812 55.566406 72.261719 54.578125 72.390625 53.589844 C 72.660156 51.539062 72.925781 49.488281 73.1875 47.433594 C 73.445312 45.382812 73.746094 43.335938 74.003906 41.285156 C 74.140625 40.226562 74.199219 39.191406 73.683594 38.214844 C 73.277344 37.449219 72.675781 36.832031 72.148438 36.152344 C 71.980469 35.933594 72.429688 35.789062 72.578125 35.917969 C 73.945312 37.082031 74.902344 38.515625 74.816406 40.355469 C 74.765625 41.445312 74.554688 42.539062 74.410156 43.617188 C 74.265625 44.683594 74.121094 45.753906 73.976562 46.820312 C 73.679688 48.996094 73.363281 51.171875 73.0625 53.347656 C 72.910156 54.457031 72.757812 55.5625 72.605469 56.671875 C 72.597656 56.726562 72.589844 56.777344 72.582031 56.832031 C 72.554688 57.042969 72.53125 57.25 72.507812 57.460938 C 76.144531 59.128906 80.128906 60 84.125 60 C 85.089844 60 86.054688 59.949219 87.011719 59.847656 C 87.371094 59.808594 87.730469 59.765625 88.082031 59.710938 C 88.09375 59.507812 88.105469 59.300781 88.117188 59.097656 C 88.148438 58.621094 88.191406 58.140625 88.242188 57.667969 C 88.414062 56.066406 88.6875 54.476562 89.054688 52.910156 C 88.625 51.769531 88.226562 50.617188 87.808594 49.472656 C 87.125 47.609375 86.441406 45.746094 85.757812 43.886719 C 85.417969 42.953125 85.085938 42.019531 84.75 41.085938 C 84.433594 40.210938 84.0625 39.328125 84.023438 38.390625 C 83.949219 36.664062 84.835938 35.066406 84.882812 33.347656 C 84.886719 33.183594 85.183594 33.140625 85.203125 33.3125 C 85.398438 35.023438 84.449219 36.59375 84.539062 38.296875 C 84.589844 39.191406 84.957031 40.03125 85.269531 40.859375 C 85.621094 41.789062 85.976562 42.714844 86.320312 43.644531 C 86.996094 45.464844 87.675781 47.285156 88.351562 49.109375 C 88.675781 49.984375 89.019531 50.863281 89.347656 51.742188 C 90.113281 48.847656 91.207031 46.015625 92.703125 43.425781 C 92.785156 43.285156 93.082031 43.347656 93 43.523438 C 91.632812 46.519531 90.472656 49.578125 89.734375 52.785156 C 89.71875 52.847656 89.703125 52.914062 89.691406 52.972656 C 89.613281 53.308594 89.542969 53.648438 89.476562 53.988281 C 89.226562 55.238281 89.042969 56.492188 88.910156 57.757812 C 88.871094 58.167969 88.832031 58.578125 88.800781 58.988281 C 88.785156 59.191406 88.773438 59.398438 88.761719 59.601562 C 93.101562 58.855469 97.230469 57.0625 100.792969 54.371094 C 100.835938 54.335938 100.871094 54.292969 100.890625 54.242188 C 101.070312 53.800781 101.261719 53.324219 101.4375 52.835938 C 102.167969 50.765625 102.25 49.070312 101.691406 47.65625 " fill-opacity="1" fill-rule="nonzero"/></g><g clip-path="url(#435cc72403)"><g transform="matrix(1, 0, 0, 1, 0, -0.000000000000001479)"><g clip-path="url(#753929e63e)"><g clip-path="url(#1bbffab92f)"><path fill="#0f0e0c" d="M 10.867188 49.636719 C 11.195312 49.304688 11.085938 48.8125 11.035156 48.402344 C 10.945312 47.65625 10.832031 46.910156 10.710938 46.167969 C 10.5625 45.222656 10.359375 44.292969 10.167969 43.359375 C 9.476562 44.925781 8.824219 46.511719 8.214844 48.113281 C 7.921875 48.886719 7.632812 49.65625 7.351562 50.4375 C 7.242188 50.746094 7.132812 51.050781 7.039062 51.363281 C 8 50.859375 9.054688 50.5625 10.042969 50.109375 C 10.320312 49.980469 10.648438 49.859375 10.867188 49.636719 Z M 0.761719 52.339844 C 0.816406 50.550781 1.332031 48.824219 1.828125 47.15625 C 2.425781 45.160156 3.023438 43.167969 3.617188 41.171875 C 3.777344 40.644531 3.957031 40.042969 3.859375 39.488281 C 3.832031 39.320312 3.777344 39.15625 3.722656 38.976562 C 3.6875 38.867188 3.652344 38.757812 3.621094 38.644531 C 3.578125 38.488281 3.546875 38.324219 3.535156 38.152344 C 3.53125 38.042969 3.535156 37.933594 3.546875 37.828125 C 3.609375 37.289062 3.882812 36.804688 4.109375 36.402344 L 7.695312 30.023438 L 7.917969 29.628906 L 8.011719 29.460938 C 7.945312 29.339844 7.878906 29.222656 7.8125 29.101562 C 7.792969 29.0625 7.769531 29.023438 7.753906 28.984375 C 6.167969 26.023438 5.113281 22.730469 4.6875 19.417969 C 4.078125 14.660156 5.011719 10.53125 7.316406 7.800781 C 8.023438 6.964844 8.859375 6.25 9.671875 5.554688 C 10.3125 5.007812 10.972656 4.441406 11.558594 3.828125 C 11.804688 3.566406 12.046875 3.289062 12.277344 3.019531 C 12.804688 2.414062 13.351562 1.785156 14.015625 1.289062 C 15.503906 0.171875 17.5625 -0.246094 19.664062 0.140625 C 21.359375 0.453125 23.066406 1.25 24.890625 2.582031 C 28.6875 5.351562 31.875 9.59375 34.097656 14.851562 C 35.539062 18.265625 35.621094 20.835938 34.347656 22.707031 C 33.808594 23.496094 33.050781 24.085938 32.320312 24.65625 C 31.613281 25.210938 30.945312 25.730469 30.457031 26.421875 C 29.980469 27.09375 28.992188 29.003906 30.097656 32.160156 C 30.5 33.3125 31.089844 34.417969 31.660156 35.488281 C 32.054688 36.226562 32.460938 36.992188 32.808594 37.773438 C 33.664062 39.6875 33.722656 41.230469 32.976562 42.351562 C 32.023438 43.792969 30.128906 43.964844 28.644531 43.917969 C 28.605469 43.917969 28.566406 43.917969 28.527344 43.914062 C 28.355469 44.796875 28.058594 45.648438 27.644531 46.4375 C 27.363281 46.984375 27.019531 47.503906 26.628906 47.984375 C 26.496094 51.246094 26.222656 54.539062 25.816406 57.78125 L 25.796875 57.9375 L 25.65625 58.011719 C 25.132812 58.285156 24.585938 58.527344 24.019531 58.746094 C 23.792969 58.832031 23.5625 58.914062 23.332031 58.992188 C 21.335938 59.660156 19.132812 60 16.816406 60 C 15.261719 60 13.652344 59.847656 12.023438 59.535156 C 10.535156 59.253906 9.078125 58.855469 7.6875 58.402344 C 7.503906 58.34375 7.320312 58.28125 7.140625 58.21875 C 5.0625 57.515625 3.15625 56.695312 1.546875 55.972656 L 1.441406 55.925781 L 1.394531 55.820312 C 0.945312 54.804688 0.722656 53.605469 0.761719 52.339844 " fill-opacity="1" fill-rule="nonzero"/><path fill="#0f0e0c" d="M 24.363281 13.957031 C 24.363281 12.992188 24.113281 12.214844 23.800781 12.214844 C 23.492188 12.214844 23.238281 12.992188 23.238281 13.957031 C 23.238281 14.917969 23.492188 15.699219 23.800781 15.699219 C 24.113281 15.699219 24.363281 14.917969 24.363281 13.957031 Z M 20.6875 18.035156 C 21.480469 19.503906 23.203125 21.429688 25.089844 20.574219 C 25.429688 20.417969 25.050781 20.09375 24.8125 20.128906 C 23.125 20.378906 22.285156 18.992188 21.375 17.835938 C 21.1875 17.59375 20.476562 17.644531 20.6875 18.035156 Z M 1.898438 55.472656 C 3.367188 56.132812 5.085938 56.867188 6.945312 57.519531 C 6.804688 56.921875 6.707031 56.304688 6.585938 55.707031 C 6.417969 54.878906 6.214844 54.042969 6.089844 53.207031 L 6.082031 53.152344 C 6.03125 52.757812 6.039062 52.359375 6.09375 51.960938 C 6.261719 50.671875 6.894531 49.394531 7.359375 48.226562 C 8.144531 46.238281 9.015625 44.285156 9.96875 42.371094 C 10.050781 42.199219 10.140625 42.023438 10.226562 41.851562 C 10.304688 41.699219 10.382812 41.546875 10.460938 41.394531 C 10.558594 41.207031 10.65625 41.015625 10.757812 40.828125 C 11.050781 40.265625 11.355469 39.707031 11.664062 39.15625 C 10.8125 38.542969 9.890625 38.042969 8.839844 37.75 C 7.765625 37.453125 6.609375 37.429688 5.546875 37.707031 C 5.375 38.179688 5.148438 38.632812 4.957031 39.097656 C 4.804688 39.476562 4.679688 39.878906 4.457031 40.226562 C 4.40625 40.617188 4.292969 40.996094 4.191406 41.34375 C 3.59375 43.339844 3 45.332031 2.402344 47.328125 C 1.917969 48.960938 1.414062 50.648438 1.363281 52.359375 C 1.328125 53.488281 1.511719 54.5625 1.898438 55.472656 Z M 10.167969 43.359375 C 9.476562 44.925781 8.824219 46.511719 8.214844 48.113281 C 7.921875 48.886719 7.632812 49.65625 7.351562 50.4375 C 7.242188 50.746094 7.132812 51.050781 7.039062 51.363281 C 8 50.859375 9.054688 50.5625 10.042969 50.109375 C 10.320312 49.980469 10.648438 49.859375 10.867188 49.636719 C 11.195312 49.304688 11.085938 48.8125 11.035156 48.402344 C 10.945312 47.65625 10.832031 46.910156 10.710938 46.167969 C 10.5625 45.222656 10.359375 44.292969 10.167969 43.359375 Z M 7.804688 57.8125 C 9.195312 58.265625 10.652344 58.667969 12.136719 58.949219 C 16.179688 59.71875 20.082031 59.5 23.363281 58.347656 C 23.386719 57.761719 23.394531 57.171875 23.394531 56.582031 C 23.398438 55.375 23.375 54.167969 23.421875 52.964844 C 23.457031 52.167969 23.511719 51.363281 23.644531 50.570312 C 23.695312 50.257812 23.757812 49.941406 23.835938 49.632812 C 23.988281 49.519531 24.140625 49.410156 24.296875 49.300781 C 24.382812 49.238281 24.472656 49.175781 24.5625 49.109375 C 24.652344 49.042969 24.742188 48.976562 24.832031 48.90625 C 25.265625 48.574219 25.671875 48.1875 26.039062 47.757812 C 26.0625 47.730469 26.082031 47.707031 26.105469 47.679688 C 26.910156 46.714844 27.492188 45.578125 27.8125 44.363281 C 27.871094 43.878906 27.902344 43.394531 27.839844 42.890625 C 27.695312 41.722656 27.058594 40.832031 26.316406 39.964844 C 26.273438 39.917969 26.230469 39.867188 26.191406 39.820312 C 25.964844 39.558594 25.746094 39.292969 25.539062 39.019531 C 25.382812 38.816406 25.238281 38.609375 25.105469 38.390625 C 24.382812 38.71875 23.46875 38.625 22.617188 38.398438 C 22.425781 38.351562 22.238281 38.292969 22.058594 38.234375 C 21.683594 38.113281 21.335938 37.976562 21.03125 37.851562 C 19.359375 37.175781 17.851562 36.144531 16.5 34.964844 C 15.097656 33.738281 14.011719 32.191406 12.597656 30.988281 C 11.449219 30.007812 10.039062 29.710938 8.59375 29.644531 L 4.628906 36.695312 C 4.5 36.921875 4.359375 37.175781 4.257812 37.441406 C 5.542969 36.863281 7.070312 36.753906 8.441406 37.015625 C 9.710938 37.261719 10.902344 37.824219 11.996094 38.566406 C 12.097656 38.632812 12.199219 38.707031 12.296875 38.777344 C 13.242188 39.457031 14.101562 40.257812 14.867188 41.085938 C 14.984375 40.222656 15.074219 39.355469 15.238281 38.496094 C 15.269531 38.332031 15.546875 38.367188 15.550781 38.53125 C 15.566406 39.625 15.472656 40.71875 15.449219 41.816406 C 15.445312 42.089844 15.070312 42.167969 14.886719 41.996094 C 14.613281 41.738281 14.339844 41.476562 14.066406 41.214844 C 13.121094 41.382812 12.085938 41.347656 11.152344 41.378906 C 11.121094 41.378906 11.089844 41.378906 11.054688 41.378906 C 10.867188 41.789062 10.679688 42.203125 10.496094 42.613281 C 10.808594 43.5625 11.039062 44.539062 11.257812 45.511719 C 11.441406 46.332031 11.601562 47.160156 11.734375 47.992188 C 11.828125 48.597656 12.039062 49.339844 11.671875 49.898438 C 11.351562 50.386719 10.691406 50.636719 10.179688 50.859375 C 9.492188 51.160156 8.777344 51.398438 8.09375 51.703125 C 7.652344 51.902344 7.222656 52.128906 6.832031 52.417969 C 6.816406 52.625 6.820312 52.835938 6.84375 53.050781 C 7.035156 54.652344 7.605469 56.210938 7.804688 57.8125 Z M 25.242188 57.550781 C 25.605469 54.613281 25.859375 51.632812 25.996094 48.679688 C 25.742188 48.933594 25.476562 49.167969 25.195312 49.382812 C 25.015625 49.523438 24.828125 49.65625 24.644531 49.789062 C 24.550781 49.851562 24.460938 49.917969 24.371094 49.984375 C 24.328125 50.265625 24.292969 50.542969 24.261719 50.804688 C 24.097656 52.007812 24.066406 53.230469 24.058594 54.441406 C 24.054688 55.574219 24.078125 56.707031 24.050781 57.839844 C 24.050781 57.921875 24.046875 58.007812 24.042969 58.089844 C 24.453125 57.925781 24.855469 57.746094 25.242188 57.550781 Z M 22.542969 30.886719 C 21.851562 30.4375 21.148438 30.003906 20.585938 29.449219 C 20.445312 30.808594 20.417969 32.582031 21.960938 33.039062 C 22.199219 33.109375 22.074219 33.410156 21.847656 33.371094 C 20.246094 33.082031 19.742188 31.40625 19.816406 29.976562 C 19.839844 29.527344 19.882812 29.078125 19.9375 28.632812 C 19.960938 28.433594 19.984375 28.238281 20.007812 28.042969 C 20.046875 27.746094 20.082031 27.449219 20.117188 27.15625 C 20.214844 26.269531 20.289062 25.375 20.414062 24.492188 C 19.214844 23.914062 18.0625 23.207031 16.832031 22.71875 C 16.484375 22.578125 16.703125 22.128906 17.042969 22.226562 C 18.289062 22.582031 19.398438 23.234375 20.546875 23.8125 C 20.757812 23.917969 20.96875 24.023438 21.1875 24.121094 C 21.460938 24.25 21.742188 24.367188 22.027344 24.472656 C 22.945312 24.8125 24.082031 25.097656 25.019531 24.683594 C 25.804688 24.335938 26.179688 23.472656 26.382812 22.691406 C 26.753906 21.289062 26.65625 19.675781 27.570312 18.464844 C 27.757812 18.214844 27.980469 18 28.238281 17.828125 C 28.582031 17.605469 29.355469 17.46875 28.941406 16.90625 C 28.730469 16.617188 28.332031 16.378906 28.078125 16.121094 C 27.78125 15.820312 27.511719 15.496094 27.285156 15.140625 C 26.839844 14.441406 26.570312 13.644531 26.695312 12.808594 C 26.808594 12.058594 27.230469 11.429688 27.585938 10.773438 C 27.144531 10.195312 26.632812 9.667969 26.058594 9.199219 C 25.011719 8.351562 23.84375 7.796875 22.605469 7.457031 C 22.660156 8.203125 22.515625 8.949219 22.21875 9.625 C 23.832031 9.089844 25.824219 9.640625 26.125 11.582031 C 26.167969 11.84375 25.714844 11.835938 25.660156 11.605469 C 25.46875 10.789062 24.796875 10.144531 23.976562 9.964844 C 23.234375 9.796875 22.515625 9.992188 21.847656 10.308594 C 21.316406 11.132812 20.539062 11.796875 19.601562 12.144531 C 18.964844 12.378906 18.34375 12.546875 17.824219 13.003906 C 17.25 13.511719 16.855469 14.21875 16.550781 14.914062 C 15.90625 16.386719 15.519531 18 15.390625 19.605469 C 15.257812 21.285156 15.421875 22.96875 15.371094 24.652344 C 15.332031 25.925781 15.273438 27.519531 14.394531 28.535156 C 13.40625 29.675781 11.964844 29.25 10.648438 29.230469 C 11.054688 29.332031 11.449219 29.46875 11.839844 29.652344 C 13.496094 30.441406 14.582031 32.027344 15.847656 33.296875 C 17.109375 34.5625 18.488281 35.722656 20.0625 36.585938 C 20.75 36.964844 21.472656 37.289062 22.222656 37.527344 C 22.457031 36.492188 22.664062 35.449219 22.753906 34.386719 C 22.855469 33.1875 22.777344 32.03125 22.542969 30.886719 Z M 10.636719 27.335938 C 10.773438 27.542969 11.214844 27.429688 11.109375 27.15625 C 10.449219 25.472656 9.847656 23.796875 9.605469 21.992188 C 9.367188 20.21875 9.398438 18.402344 9.730469 16.640625 C 10.082031 14.808594 10.726562 13.070312 11.667969 11.457031 C 12.59375 9.878906 13.746094 8.449219 14.878906 7.015625 C 15.023438 6.832031 14.699219 6.667969 14.566406 6.8125 C 13.234375 8.308594 11.90625 9.828125 10.871094 11.546875 C 9.914062 13.125 9.246094 14.890625 8.910156 16.707031 C 8.257812 20.214844 8.636719 24.296875 10.636719 27.335938 Z M 24.359375 34.246094 C 24.394531 34.050781 24.75 34.097656 24.734375 34.296875 C 24.644531 35.460938 24.863281 36.632812 25.394531 37.671875 C 25.414062 37.710938 25.429688 37.746094 25.449219 37.78125 C 25.503906 37.878906 25.554688 37.972656 25.613281 38.0625 C 25.625 38.085938 25.640625 38.105469 25.652344 38.128906 C 25.660156 38.089844 25.664062 38.050781 25.667969 38.011719 C 25.675781 37.929688 25.683594 37.84375 25.691406 37.761719 C 25.753906 37.148438 25.777344 36.535156 25.722656 35.90625 C 25.609375 34.597656 25.191406 33.285156 24.308594 32.289062 C 24.03125 31.972656 23.707031 31.695312 23.355469 31.441406 C 23.726562 33.472656 23.355469 35.679688 22.8125 37.703125 C 23.46875 37.878906 24.15625 38.003906 24.8125 37.863281 C 24.761719 37.761719 24.714844 37.65625 24.671875 37.550781 C 24.246094 36.5 24.164062 35.355469 24.359375 34.246094 Z M 0.761719 52.339844 C 0.816406 50.550781 1.332031 48.824219 1.828125 47.15625 C 2.425781 45.160156 3.023438 43.167969 3.617188 41.171875 C 3.777344 40.644531 3.957031 40.042969 3.859375 39.488281 C 3.832031 39.320312 3.777344 39.15625 3.722656 38.976562 C 3.6875 38.867188 3.652344 38.757812 3.621094 38.644531 C 3.578125 38.488281 3.546875 38.324219 3.535156 38.152344 C 3.53125 38.042969 3.535156 37.933594 3.546875 37.828125 C 3.609375 37.289062 3.882812 36.804688 4.109375 36.402344 L 7.695312 30.023438 L 7.917969 29.628906 L 8.011719 29.460938 C 7.945312 29.339844 7.878906 29.222656 7.8125 29.101562 C 7.792969 29.0625 7.769531 29.023438 7.753906 28.984375 C 6.167969 26.023438 5.113281 22.730469 4.6875 19.417969 C 4.078125 14.660156 5.011719 10.53125 7.316406 7.800781 C 8.023438 6.964844 8.859375 6.25 9.671875 5.554688 C 10.3125 5.007812 10.972656 4.441406 11.558594 3.828125 C 11.804688 3.566406 12.046875 3.289062 12.277344 3.019531 C 12.804688 2.414062 13.351562 1.785156 14.015625 1.289062 C 15.503906 0.171875 17.5625 -0.246094 19.664062 0.140625 C 21.359375 0.453125 23.070312 1.25 24.890625 2.582031 C 28.6875 5.351562 31.875 9.59375 34.097656 14.851562 C 35.539062 18.265625 35.621094 20.835938 34.347656 22.707031 C 33.808594 23.496094 33.050781 24.085938 32.320312 24.65625 C 31.613281 25.210938 30.945312 25.730469 30.457031 26.421875 C 29.980469 27.09375 28.992188 29.003906 30.097656 32.160156 C 30.5 33.3125 31.089844 34.417969 31.660156 35.488281 C 32.054688 36.226562 32.460938 36.992188 32.8125 37.773438 C 33.664062 39.6875 33.722656 41.230469 32.980469 42.351562 C 32.023438 43.792969 30.128906 43.964844 28.644531 43.917969 C 28.605469 43.917969 28.566406 43.917969 28.527344 43.914062 C 28.355469 44.796875 28.058594 45.648438 27.644531 46.4375 C 27.363281 46.984375 27.019531 47.503906 26.628906 47.984375 C 26.496094 51.246094 26.222656 54.539062 25.816406 57.78125 L 25.796875 57.9375 L 25.65625 58.011719 C 25.132812 58.285156 24.585938 58.527344 24.019531 58.746094 C 23.792969 58.832031 23.5625 58.914062 23.332031 58.992188 C 21.335938 59.660156 19.132812 60 16.816406 60 C 15.261719 60 13.652344 59.847656 12.023438 59.535156 C 10.535156 59.253906 9.078125 58.855469 7.6875 58.402344 C 7.503906 58.34375 7.320312 58.28125 7.140625 58.21875 C 5.0625 57.515625 3.15625 56.695312 1.546875 55.972656 L 1.441406 55.925781 L 1.398438 55.820312 C 0.945312 54.804688 0.726562 53.605469 0.761719 52.339844 " fill-opacity="1" fill-rule="nonzero"/></g><path fill="#ffffff" d="M 24.058594 54.441406 C 24.066406 53.230469 24.097656 52.007812 24.261719 50.804688 C 24.292969 50.542969 24.328125 50.265625 24.371094 49.984375 C 24.460938 49.917969 24.550781 49.851562 24.644531 49.789062 C 24.828125 49.65625 25.015625 49.523438 25.195312 49.382812 C 25.476562 49.167969 25.742188 48.933594 25.996094 48.679688 C 25.859375 51.632812 25.605469 54.613281 25.242188 57.550781 C 24.855469 57.746094 24.453125 57.925781 24.042969 58.089844 C 24.046875 58.007812 24.050781 57.921875 24.050781 57.839844 C 24.078125 56.707031 24.054688 55.574219 24.058594 54.441406 Z M 24.8125 37.863281 C 24.15625 38.003906 23.46875 37.878906 22.8125 37.703125 C 23.355469 35.679688 23.726562 33.472656 23.355469 31.441406 C 23.707031 31.695312 24.03125 31.972656 24.308594 32.289062 C 25.191406 33.285156 25.609375 34.597656 25.722656 35.90625 C 25.777344 36.535156 25.753906 37.148438 25.691406 37.761719 C 25.683594 37.84375 25.675781 37.929688 25.667969 38.011719 C 25.664062 38.050781 25.660156 38.089844 25.652344 38.128906 C 25.640625 38.105469 25.625 38.085938 25.613281 38.0625 C 25.554688 37.972656 25.5 37.878906 25.449219 37.78125 C 25.429688 37.746094 25.410156 37.710938 25.394531 37.671875 C 24.863281 36.632812 24.644531 35.460938 24.734375 34.296875 C 24.75 34.097656 24.394531 34.050781 24.359375 34.246094 C 24.164062 35.355469 24.246094 36.5 24.671875 37.550781 C 24.714844 37.65625 24.761719 37.761719 24.8125 37.863281 Z M 25.089844 20.574219 C 23.203125 21.429688 21.480469 19.503906 20.6875 18.035156 C 20.476562 17.644531 21.1875 17.59375 21.375 17.835938 C 22.285156 18.992188 23.125 20.378906 24.8125 20.128906 C 25.050781 20.09375 25.429688 20.417969 25.089844 20.574219 Z M 24.363281 13.957031 C 24.363281 14.917969 24.113281 15.699219 23.800781 15.699219 C 23.492188 15.699219 23.238281 14.917969 23.238281 13.957031 C 23.238281 12.992188 23.492188 12.214844 23.800781 12.214844 C 24.113281 12.214844 24.363281 12.992188 24.363281 13.957031 Z M 27.570312 18.464844 C 27.757812 18.214844 27.980469 18 28.238281 17.828125 C 28.582031 17.605469 29.355469 17.46875 28.941406 16.90625 C 28.730469 16.617188 28.332031 16.378906 28.078125 16.121094 C 27.78125 15.820312 27.511719 15.496094 27.285156 15.140625 C 26.839844 14.441406 26.570312 13.644531 26.695312 12.808594 C 26.808594 12.058594 27.230469 11.429688 27.585938 10.773438 C 27.144531 10.195312 26.632812 9.667969 26.058594 9.199219 C 25.011719 8.351562 23.84375 7.796875 22.605469 7.457031 C 22.660156 8.203125 22.515625 8.949219 22.214844 9.625 C 23.832031 9.089844 25.824219 9.640625 26.125 11.582031 C 26.167969 11.84375 25.714844 11.835938 25.660156 11.605469 C 25.46875 10.789062 24.796875 10.144531 23.976562 9.964844 C 23.234375 9.796875 22.515625 9.992188 21.847656 10.308594 C 21.316406 11.132812 20.539062 11.796875 19.601562 12.144531 C 18.964844 12.378906 18.34375 12.546875 17.824219 13.003906 C 17.25 13.511719 16.855469 14.21875 16.550781 14.914062 C 15.90625 16.386719 15.519531 18 15.390625 19.605469 C 15.257812 21.285156 15.421875 22.96875 15.371094 24.652344 C 15.332031 25.925781 15.273438 27.519531 14.394531 28.535156 C 13.40625 29.675781 11.964844 29.25 10.648438 29.230469 C 11.050781 29.332031 11.449219 29.46875 11.839844 29.652344 C 13.496094 30.441406 14.582031 32.027344 15.847656 33.296875 C 17.109375 34.5625 18.488281 35.722656 20.0625 36.585938 C 20.75 36.964844 21.472656 37.289062 22.222656 37.527344 C 22.457031 36.492188 22.664062 35.449219 22.753906 34.386719 C 22.855469 33.1875 22.777344 32.03125 22.542969 30.886719 C 21.851562 30.4375 21.148438 30.003906 20.585938 29.449219 C 20.445312 30.808594 20.417969 32.582031 21.960938 33.039062 C 22.199219 33.109375 22.074219 33.410156 21.847656 33.371094 C 20.246094 33.082031 19.742188 31.40625 19.816406 29.976562 C 19.839844 29.527344 19.882812 29.078125 19.9375 28.632812 C 19.960938 28.433594 19.984375 28.238281 20.007812 28.042969 C 20.046875 27.746094 20.082031 27.449219 20.117188 27.15625 C 20.214844 26.269531 20.289062 25.375 20.414062 24.492188 C 19.214844 23.914062 18.0625 23.207031 16.832031 22.71875 C 16.484375 22.578125 16.703125 22.128906 17.042969 22.226562 C 18.289062 22.582031 19.398438 23.234375 20.546875 23.8125 C 20.757812 23.917969 20.96875 24.023438 21.1875 24.121094 C 21.460938 24.25 21.742188 24.367188 22.027344 24.472656 C 22.945312 24.8125 24.082031 25.097656 25.019531 24.683594 C 25.804688 24.335938 26.179688 23.472656 26.382812 22.691406 C 26.75 21.289062 26.65625 19.675781 27.570312 18.464844 Z M 11.667969 11.457031 C 10.726562 13.070312 10.082031 14.808594 9.730469 16.640625 C 9.394531 18.402344 9.367188 20.21875 9.605469 21.992188 C 9.847656 23.796875 10.449219 25.472656 11.109375 27.15625 C 11.214844 27.429688 10.773438 27.542969 10.636719 27.335938 C 8.632812 24.296875 8.257812 20.214844 8.910156 16.707031 C 9.246094 14.890625 9.914062 13.125 10.871094 11.546875 C 11.90625 9.828125 13.234375 8.308594 14.566406 6.8125 C 14.699219 6.667969 15.023438 6.832031 14.878906 7.015625 C 13.746094 8.449219 12.59375 9.878906 11.667969 11.457031 Z M 6.832031 52.417969 C 7.222656 52.128906 7.652344 51.902344 8.09375 51.703125 C 8.777344 51.398438 9.492188 51.160156 10.179688 50.859375 C 10.691406 50.636719 11.351562 50.386719 11.671875 49.898438 C 12.039062 49.339844 11.828125 48.597656 11.734375 47.992188 C 11.601562 47.160156 11.441406 46.332031 11.257812 45.511719 C 11.039062 44.539062 10.808594 43.5625 10.496094 42.613281 C 10.679688 42.203125 10.867188 41.789062 11.054688 41.378906 C 11.089844 41.378906 11.121094 41.378906 11.152344 41.378906 C 12.085938 41.347656 13.121094 41.382812 14.066406 41.214844 C 14.339844 41.476562 14.613281 41.738281 14.886719 41.996094 C 15.070312 42.167969 15.445312 42.089844 15.449219 41.816406 C 15.472656 40.71875 15.566406 39.625 15.550781 38.53125 C 15.546875 38.367188 15.269531 38.332031 15.238281 38.496094 C 15.074219 39.355469 14.984375 40.222656 14.867188 41.085938 C 14.101562 40.257812 13.242188 39.457031 12.296875 38.777344 C 12.199219 38.707031 12.097656 38.632812 11.996094 38.566406 C 10.902344 37.824219 9.710938 37.261719 8.441406 37.015625 C 7.070312 36.753906 5.542969 36.863281 4.257812 37.441406 C 4.359375 37.175781 4.5 36.921875 4.628906 36.695312 L 8.59375 29.644531 C 10.039062 29.710938 11.449219 30.007812 12.597656 30.988281 C 14.011719 32.191406 15.097656 33.738281 16.5 34.964844 C 17.851562 36.144531 19.359375 37.175781 21.03125 37.851562 C 21.335938 37.976562 21.683594 38.113281 22.058594 38.234375 C 22.238281 38.292969 22.425781 38.351562 22.617188 38.398438 C 23.46875 38.625 24.382812 38.71875 25.105469 38.390625 C 25.238281 38.609375 25.382812 38.816406 25.539062 39.019531 C 25.746094 39.292969 25.964844 39.558594 26.191406 39.820312 C 26.230469 39.867188 26.273438 39.917969 26.316406 39.964844 C 27.058594 40.832031 27.695312 41.722656 27.839844 42.890625 C 27.902344 43.394531 27.871094 43.878906 27.8125 44.363281 C 27.492188 45.578125 26.910156 46.714844 26.105469 47.679688 C 26.082031 47.707031 26.0625 47.730469 26.039062 47.757812 C 25.671875 48.1875 25.265625 48.574219 24.832031 48.90625 C 24.742188 48.976562 24.652344 49.042969 24.5625 49.109375 C 24.472656 49.175781 24.382812 49.238281 24.296875 49.300781 C 24.140625 49.410156 23.988281 49.519531 23.835938 49.632812 C 23.757812 49.941406 23.695312 50.257812 23.644531 50.570312 C 23.511719 51.363281 23.457031 52.167969 23.421875 52.964844 C 23.375 54.167969 23.398438 55.375 23.394531 56.582031 C 23.394531 57.171875 23.386719 57.761719 23.363281 58.347656 C 20.082031 59.5 16.179688 59.71875 12.136719 58.949219 C 10.652344 58.667969 9.195312 58.265625 7.804688 57.8125 C 7.605469 56.210938 7.035156 54.652344 6.84375 53.050781 C 6.820312 52.835938 6.816406 52.625 6.832031 52.417969 Z M 1.898438 55.472656 C 3.367188 56.132812 5.085938 56.867188 6.945312 57.519531 C 6.804688 56.921875 6.707031 56.304688 6.585938 55.707031 C 6.417969 54.878906 6.214844 54.042969 6.089844 53.207031 L 6.082031 53.152344 C 6.03125 52.757812 6.039062 52.359375 6.09375 51.960938 C 6.261719 50.671875 6.894531 49.394531 7.359375 48.226562 C 8.144531 46.238281 9.015625 44.285156 9.96875 42.371094 C 10.050781 42.199219 10.140625 42.023438 10.226562 41.851562 C 10.304688 41.699219 10.382812 41.546875 10.460938 41.394531 C 10.558594 41.207031 10.65625 41.015625 10.757812 40.828125 C 11.050781 40.265625 11.355469 39.707031 11.664062 39.15625 C 10.8125 38.542969 9.890625 38.042969 8.839844 37.75 C 7.765625 37.453125 6.609375 37.429688 5.546875 37.707031 C 5.375 38.179688 5.148438 38.632812 4.957031 39.097656 C 4.804688 39.476562 4.679688 39.878906 4.457031 40.226562 C 4.40625 40.617188 4.292969 40.996094 4.191406 41.34375 C 3.59375 43.339844 3 45.332031 2.402344 47.328125 C 1.917969 48.960938 1.414062 50.648438 1.363281 52.359375 C 1.328125 53.488281 1.511719 54.5625 1.898438 55.472656 " fill-opacity="1" fill-rule="nonzero"/></g></g></g><g clip-path="url(#4189474b16)"><path fill="#0f0e0c" d="M 67.707031 47.054688 C 67.414062 46.222656 67.007812 45.425781 66.621094 44.65625 C 66.28125 43.996094 65.9375 43.3125 65.667969 42.621094 C 65.238281 41.511719 64.980469 40.316406 64.734375 39.160156 C 64.59375 38.503906 64.449219 37.828125 64.269531 37.167969 C 64.167969 36.777344 64.046875 36.367188 63.785156 36.011719 C 63.460938 35.5625 62.972656 35.289062 62.546875 35.042969 C 61.441406 34.417969 60.304688 33.769531 59.109375 33.253906 C 58.863281 33.152344 58.617188 33.046875 58.363281 32.945312 C 57.886719 32.75 57.40625 32.550781 56.949219 32.328125 C 56.746094 32.234375 56.546875 32.132812 56.355469 32.023438 C 56.050781 31.851562 55.761719 31.667969 55.503906 31.457031 C 55.347656 31.335938 55.203125 31.207031 55.074219 31.066406 C 54.964844 30.953125 54.863281 30.832031 54.773438 30.707031 L 54.765625 30.644531 C 54.734375 30.40625 54.703125 30.164062 54.671875 29.925781 L 54.671875 29.902344 C 54.566406 29.101562 54.457031 28.269531 54.445312 27.457031 C 54.429688 26.292969 54.601562 25.148438 54.960938 24.046875 C 55.289062 24.289062 55.671875 24.410156 56.039062 24.371094 C 56.640625 24.3125 57.132812 23.792969 57.117188 23.238281 C 57.117188 23.183594 57.109375 23.132812 57.101562 23.078125 C 57.097656 23.023438 57.085938 22.9375 57.097656 22.914062 C 57.101562 22.902344 57.199219 22.859375 57.394531 22.886719 L 57.429688 22.890625 C 57.683594 22.925781 58.035156 22.976562 58.304688 22.738281 C 58.503906 22.566406 58.679688 22.222656 58.394531 21.566406 C 58.1875 21.089844 57.960938 20.605469 57.71875 20.117188 C 59.445312 19.121094 60.71875 17.371094 61.066406 15.488281 C 61.167969 14.9375 61.171875 14.367188 61.074219 13.859375 C 62 12.925781 62.574219 11.570312 62.625 10.199219 C 62.6875 8.503906 62.027344 6.738281 60.777344 5.222656 C 59.78125 4.019531 58.402344 2.957031 56.574219 1.984375 C 53.550781 0.375 50.722656 -0.230469 48.164062 0.175781 C 46.8125 0.390625 45.445312 0.902344 43.988281 1.730469 C 41.253906 3.285156 38.957031 5.523438 37.347656 8.210938 C 36.820312 9.085938 36.242188 10.25 36.410156 11.472656 C 36.578125 12.652344 37.394531 13.578125 38.085938 14.253906 C 38.433594 14.597656 38.800781 14.921875 39.1875 15.234375 C 39.261719 15.296875 39.339844 15.355469 39.414062 15.414062 C 39.472656 15.460938 39.527344 15.503906 39.585938 15.546875 C 39.765625 18.835938 40.609375 22.132812 42.023438 25.089844 C 42.21875 25.496094 42.4375 25.914062 42.796875 26.222656 C 43.402344 26.75 44.234375 26.824219 44.90625 26.824219 L 44.972656 26.824219 C 45.0625 27.183594 45.097656 27.578125 45.121094 27.957031 C 45.1875 29.042969 45.234375 30.125 45.261719 31.167969 C 45.167969 31.300781 45.058594 31.433594 44.941406 31.554688 C 44.390625 32.132812 43.671875 32.550781 42.972656 32.949219 C 42.960938 32.957031 42.949219 32.964844 42.9375 32.972656 C 42.847656 33.023438 42.761719 33.070312 42.675781 33.121094 C 41.636719 33.714844 40.601562 34.3125 39.5625 34.90625 C 38.410156 35.566406 36.824219 36.472656 36.167969 37.988281 C 35.6875 39.101562 35.785156 40.3125 35.878906 41.480469 C 35.921875 41.996094 35.964844 42.527344 35.957031 43.035156 C 35.925781 44.53125 35.449219 45.941406 34.949219 47.433594 C 34.632812 48.367188 34.308594 49.332031 34.105469 50.3125 C 33.613281 52.71875 33.875 55.300781 34.847656 57.578125 C 34.875 57.640625 34.921875 57.691406 34.980469 57.722656 C 36.070312 58.328125 37.230469 58.777344 38.410156 59.105469 C 38.476562 59.125 38.542969 59.144531 38.609375 59.160156 C 38.738281 59.195312 38.867188 59.230469 38.996094 59.261719 C 39.019531 59.269531 39.046875 59.273438 39.070312 59.277344 C 41.191406 59.792969 43.359375 59.949219 45.335938 59.949219 C 46.515625 59.949219 47.625 59.894531 48.617188 59.824219 C 51.667969 59.609375 54.703125 59.203125 57.707031 58.617188 C 57.933594 58.570312 58.164062 58.527344 58.390625 58.480469 C 61.480469 57.84375 64.535156 57.015625 67.53125 55.992188 C 67.628906 55.960938 67.703125 55.882812 67.726562 55.78125 C 68.578125 52.339844 68.570312 49.484375 67.707031 47.054688 " fill-opacity="1" fill-rule="nonzero"/></g><path fill="#ffffff" d="M 67.183594 55.480469 C 64.269531 56.464844 61.300781 57.269531 58.300781 57.886719 C 58.234375 57.484375 58.152344 57.085938 58.09375 56.703125 C 57.957031 55.761719 57.820312 54.820312 57.683594 53.878906 C 57.40625 52 57.117188 50.125 56.820312 48.25 C 56.675781 47.3125 56.523438 46.378906 56.371094 45.441406 C 56.222656 44.515625 55.945312 43.523438 56.058594 42.582031 C 56.273438 40.820312 57.359375 39.230469 57.722656 37.5 C 57.742188 37.410156 57.597656 37.386719 57.558594 37.457031 C 57.066406 38.300781 56.730469 39.25 56.359375 40.148438 C 56.050781 40.902344 55.679688 41.660156 55.527344 42.46875 C 55.355469 43.34375 55.535156 44.246094 55.660156 45.121094 C 55.800781 46.0625 55.933594 47.003906 56.074219 47.945312 C 56.351562 49.824219 56.636719 51.699219 56.9375 53.574219 C 57.085938 54.507812 57.234375 55.445312 57.386719 56.378906 C 57.472656 56.902344 57.519531 57.46875 57.601562 58.027344 C 54.617188 58.613281 51.601562 59.011719 48.574219 59.226562 C 45.902344 59.414062 42.328125 59.503906 38.9375 58.628906 C 38.691406 57.210938 38.753906 55.804688 38.90625 54.351562 C 39.101562 52.472656 39.273438 50.59375 39.441406 48.714844 C 39.617188 46.757812 39.707031 44.792969 39.945312 42.847656 C 40.03125 42.160156 40.121094 41.390625 39.851562 40.730469 C 39.578125 40.058594 38.90625 39.707031 38.34375 39.304688 C 38.25 39.234375 38.050781 39.335938 38.144531 39.457031 C 38.640625 40.105469 39.335938 40.488281 39.4375 41.363281 C 39.53125 42.175781 39.328125 42.992188 39.242188 43.792969 C 39.019531 45.820312 38.910156 47.863281 38.734375 49.890625 C 38.589844 51.605469 38.390625 53.3125 38.242188 55.023438 C 38.148438 56.105469 38.050781 57.316406 38.25 58.4375 C 37.253906 58.136719 36.285156 57.75 35.363281 57.25 C 34.472656 55.105469 34.234375 52.6875 34.699219 50.433594 C 34.890625 49.488281 35.210938 48.539062 35.519531 47.625 C 36.015625 46.15625 36.527344 44.636719 36.558594 43.042969 C 36.566406 42.507812 36.523438 41.960938 36.480469 41.433594 C 36.386719 40.285156 36.300781 39.203125 36.722656 38.222656 C 37.257812 36.996094 38.464844 36.230469 39.867188 35.425781 C 40.761719 34.910156 41.660156 34.394531 42.558594 33.878906 C 42.273438 36.679688 43.453125 40.242188 46.773438 40.09375 C 48.253906 40.027344 49.523438 39.144531 50.589844 38.195312 C 51.972656 36.960938 53.273438 35.632812 54.644531 34.378906 C 55.242188 33.832031 55.847656 33.292969 56.457031 32.757812 C 56.996094 33.03125 57.566406 33.265625 58.132812 33.496094 C 58.382812 33.601562 58.628906 33.699219 58.867188 33.804688 C 60.03125 34.304688 61.160156 34.945312 62.246094 35.5625 C 62.640625 35.785156 63.046875 36.019531 63.296875 36.363281 C 63.496094 36.636719 63.597656 36.984375 63.6875 37.320312 C 63.859375 37.96875 64.003906 38.636719 64.144531 39.285156 C 64.398438 40.464844 64.65625 41.679688 65.105469 42.835938 C 65.382812 43.554688 65.738281 44.253906 66.082031 44.925781 C 66.460938 45.679688 66.855469 46.457031 67.136719 47.253906 C 67.949219 49.535156 67.964844 52.226562 67.183594 55.480469 Z M 42.476562 14.574219 C 42.476562 14.304688 42.699219 14.085938 42.96875 14.085938 L 42.988281 14.085938 C 43.261719 14.085938 43.484375 14.304688 43.484375 14.574219 L 43.484375 16.242188 C 43.484375 16.511719 43.261719 16.730469 42.988281 16.730469 L 42.96875 16.730469 C 42.699219 16.730469 42.476562 16.511719 42.476562 16.242188 Z M 44.855469 19.488281 C 45.296875 19.550781 45.734375 19.605469 46.160156 19.738281 C 46.390625 19.8125 46.339844 20.121094 46.097656 20.140625 C 45.261719 20.203125 44.234375 20.03125 43.503906 19.605469 C 43.320312 19.5 43.515625 19.328125 43.652344 19.332031 C 44.054688 19.335938 44.457031 19.429688 44.855469 19.488281 Z M 47.402344 21.84375 C 48.082031 21.550781 48.679688 21.152344 49.246094 20.683594 C 49.539062 20.441406 50.042969 20.753906 49.707031 21.066406 C 48.65625 22.054688 46.792969 22.988281 45.304688 22.625 C 45.199219 22.597656 45.171875 22.476562 45.289062 22.441406 C 45.996094 22.222656 46.71875 22.136719 47.402344 21.84375 Z M 49.757812 14.574219 C 49.757812 14.304688 49.976562 14.085938 50.25 14.085938 L 50.269531 14.085938 C 50.539062 14.085938 50.761719 14.304688 50.761719 14.574219 L 50.761719 16.242188 C 50.761719 16.511719 50.539062 16.730469 50.269531 16.730469 L 50.25 16.730469 C 49.976562 16.730469 49.757812 16.511719 49.757812 16.242188 Z M 56.867188 14.742188 C 57.09375 13.976562 58.253906 13.128906 59.039062 13.613281 C 59.078125 13.640625 59.050781 13.695312 59.011719 13.703125 C 58.511719 13.835938 57.472656 14.011719 57.414062 14.691406 C 57.480469 14.875 57.546875 15.0625 57.613281 15.246094 C 57.664062 15.253906 57.710938 15.261719 57.757812 15.265625 C 57.847656 15.3125 57.972656 15.308594 58.070312 15.355469 C 58.191406 15.414062 58.289062 15.496094 58.375 15.605469 C 58.964844 16.398438 57.933594 17.625 57.4375 18.199219 C 57.242188 18.425781 56.757812 18.269531 56.964844 17.960938 C 57.226562 17.5625 57.550781 17.1875 57.773438 16.761719 C 57.894531 16.523438 58.074219 16.160156 57.898438 15.902344 C 57.785156 15.742188 57.507812 15.71875 57.34375 15.65625 C 56.902344 15.492188 56.730469 15.214844 56.867188 14.742188 Z M 43.191406 25.773438 C 43.605469 26.128906 44.214844 26.210938 44.746094 26.222656 C 46.109375 26.140625 47.429688 26 48.722656 25.457031 C 50.203125 24.839844 51.46875 23.902344 52.554688 22.734375 C 52.660156 22.617188 52.992188 22.703125 52.871094 22.875 C 51.898438 24.285156 50.476562 25.371094 48.890625 26.027344 C 47.878906 26.445312 46.722656 26.765625 45.585938 26.808594 C 45.667969 27.171875 45.703125 27.554688 45.722656 27.921875 C 45.789062 29.046875 45.839844 30.167969 45.863281 31.25 C 45.863281 31.269531 45.863281 31.28125 45.863281 31.296875 L 45.863281 31.300781 C 45.957031 32.253906 45.65625 33.269531 45.179688 34.074219 C 45.113281 34.183594 44.820312 34.167969 44.875 34.007812 C 45.097656 33.355469 45.203125 32.726562 45.261719 32.085938 C 44.9375 32.40625 44.574219 32.671875 44.199219 32.917969 C 44.28125 34.355469 44.378906 36.148438 45.53125 37.210938 C 46.269531 37.890625 47.179688 37.4375 47.914062 37.007812 C 48.582031 36.613281 49.230469 36.175781 49.855469 35.71875 C 51.585938 34.453125 53.132812 32.992188 54.644531 31.488281 C 54.496094 31.332031 54.355469 31.167969 54.234375 30.988281 C 54.207031 30.949219 54.191406 30.902344 54.183594 30.855469 L 54.167969 30.722656 C 54.136719 30.484375 54.105469 30.242188 54.074219 30.003906 L 54.070312 29.980469 C 53.960938 29.160156 53.851562 28.3125 53.839844 27.464844 C 53.824219 26.128906 54.039062 24.8125 54.492188 23.554688 C 54.511719 23.503906 54.527344 23.453125 54.546875 23.402344 C 54.566406 23.351562 54.597656 23.308594 54.640625 23.273438 C 54.667969 23.101562 54.703125 22.925781 54.742188 22.75 C 54.988281 21.628906 55.394531 20.5 55.992188 19.589844 C 55.953125 19.492188 55.9375 19.386719 55.945312 19.28125 C 55.957031 19.113281 56.210938 19.113281 56.308594 19.191406 C 56.449219 19.300781 56.550781 19.449219 56.695312 19.558594 C 56.828125 19.65625 56.984375 19.710938 57.140625 19.753906 C 57.152344 19.746094 57.167969 19.738281 57.179688 19.730469 C 58.875 18.847656 60.136719 17.179688 60.476562 15.378906 C 60.570312 14.847656 60.5625 14.300781 60.449219 13.832031 C 60.351562 13.417969 60.113281 12.863281 59.570312 12.566406 C 58.914062 12.207031 58.097656 12.394531 57.546875 12.6875 C 57.210938 12.867188 56.90625 13.105469 56.621094 13.367188 C 56.503906 13.941406 56.304688 14.496094 56.046875 15.027344 C 55.695312 15.75 55.21875 16.683594 54.320312 16.785156 C 53.476562 16.878906 53.09375 16.148438 53.179688 15.40625 C 53.25 14.808594 53.398438 14.246094 53.386719 13.636719 C 53.382812 13.179688 53.3125 12.730469 53.222656 12.285156 C 52.5625 12.542969 52 13.042969 51.300781 13.21875 C 51.003906 13.292969 50.679688 13.328125 50.375 13.273438 C 49.9375 13.195312 49.59375 12.824219 49.136719 12.953125 C 48.449219 13.152344 48.128906 14.003906 47.433594 14.238281 C 45.894531 14.765625 45.660156 12.28125 45.628906 11.355469 C 45.59375 10.453125 45.796875 9.605469 45.910156 8.714844 C 46.003906 7.96875 45.921875 7.109375 45.371094 6.585938 C 44.613281 7.265625 43.878906 7.925781 43.277344 8.765625 C 42.699219 9.570312 42.25 10.464844 41.953125 11.40625 C 42.023438 11.386719 42.09375 11.375 42.167969 11.359375 C 42.683594 11.273438 44.105469 11.277344 44.171875 12 C 44.175781 12.035156 44.140625 12.074219 44.105469 12.078125 C 43.585938 12.183594 43.0625 11.859375 42.515625 11.902344 C 42.242188 11.921875 41.996094 11.996094 41.761719 12.105469 C 41.648438 12.589844 41.578125 13.082031 41.546875 13.578125 C 41.515625 14.070312 41.605469 14.621094 41.414062 15.089844 C 41.285156 15.414062 41.003906 15.699219 40.652344 15.78125 C 40.484375 15.816406 40.335938 15.796875 40.199219 15.742188 C 40.402344 18.878906 41.21875 22.011719 42.570312 24.835938 C 42.742188 25.195312 42.917969 25.535156 43.191406 25.773438 " fill-opacity="1" fill-rule="nonzero"/><g clip-path="url(#a7272fb1e1)"><path fill="#0f0e0c" d="M 43.484375 14.574219 C 43.484375 14.304688 43.261719 14.085938 42.992188 14.085938 L 42.972656 14.085938 C 42.699219 14.085938 42.480469 14.304688 42.480469 14.574219 L 42.480469 16.242188 C 42.480469 16.511719 42.699219 16.730469 42.972656 16.730469 L 42.992188 16.730469 C 43.261719 16.730469 43.484375 16.511719 43.484375 16.242188 Z M 46.097656 20.140625 C 46.339844 20.121094 46.390625 19.8125 46.160156 19.738281 C 45.734375 19.605469 45.296875 19.550781 44.855469 19.488281 C 44.457031 19.429688 44.058594 19.335938 43.652344 19.332031 C 43.515625 19.328125 43.320312 19.5 43.503906 19.605469 C 44.234375 20.03125 45.265625 20.203125 46.097656 20.140625 Z M 49.246094 20.683594 C 48.679688 21.152344 48.082031 21.550781 47.40625 21.84375 C 46.71875 22.136719 45.996094 22.222656 45.289062 22.441406 C 45.171875 22.476562 45.203125 22.597656 45.304688 22.625 C 46.792969 22.988281 48.65625 22.054688 49.707031 21.066406 C 50.042969 20.753906 49.539062 20.441406 49.246094 20.683594 Z M 50.269531 14.085938 L 50.25 14.085938 C 49.980469 14.085938 49.757812 14.304688 49.757812 14.574219 L 49.757812 16.242188 C 49.757812 16.511719 49.980469 16.730469 50.25 16.730469 L 50.269531 16.730469 C 50.539062 16.730469 50.761719 16.511719 50.761719 16.242188 L 50.761719 14.574219 C 50.761719 14.304688 50.539062 14.085938 50.269531 14.085938 Z M 67.136719 47.253906 C 66.855469 46.457031 66.460938 45.679688 66.082031 44.925781 C 65.738281 44.253906 65.382812 43.554688 65.105469 42.835938 C 64.65625 41.679688 64.398438 40.464844 64.144531 39.285156 C 64.003906 38.636719 63.859375 37.96875 63.6875 37.320312 C 63.597656 36.984375 63.496094 36.636719 63.296875 36.363281 C 63.046875 36.019531 62.640625 35.785156 62.246094 35.5625 C 61.160156 34.945312 60.03125 34.304688 58.867188 33.804688 C 58.628906 33.699219 58.382812 33.601562 58.132812 33.496094 C 57.566406 33.265625 56.996094 33.03125 56.457031 32.757812 C 55.847656 33.292969 55.242188 33.832031 54.644531 34.378906 C 53.273438 35.632812 51.972656 36.960938 50.589844 38.195312 C 49.523438 39.144531 48.253906 40.027344 46.773438 40.09375 C 43.453125 40.242188 42.273438 36.679688 42.558594 33.878906 C 41.660156 34.394531 40.761719 34.910156 39.867188 35.425781 C 38.464844 36.230469 37.257812 36.996094 36.722656 38.222656 C 36.300781 39.203125 36.386719 40.285156 36.480469 41.433594 C 36.523438 41.960938 36.566406 42.507812 36.558594 43.042969 C 36.527344 44.636719 36.015625 46.15625 35.519531 47.625 C 35.210938 48.539062 34.890625 49.488281 34.699219 50.433594 C 34.234375 52.6875 34.472656 55.105469 35.363281 57.25 C 36.285156 57.75 37.253906 58.136719 38.25 58.4375 C 38.050781 57.316406 38.148438 56.105469 38.242188 55.023438 C 38.390625 53.3125 38.589844 51.605469 38.734375 49.890625 C 38.910156 47.863281 39.019531 45.820312 39.242188 43.792969 C 39.328125 42.992188 39.53125 42.175781 39.4375 41.363281 C 39.335938 40.488281 38.640625 40.105469 38.144531 39.457031 C 38.050781 39.335938 38.25 39.234375 38.34375 39.304688 C 38.90625 39.707031 39.578125 40.058594 39.851562 40.730469 C 40.121094 41.390625 40.03125 42.160156 39.945312 42.847656 C 39.707031 44.792969 39.617188 46.757812 39.441406 48.714844 C 39.273438 50.59375 39.101562 52.472656 38.90625 54.351562 C 38.753906 55.804688 38.691406 57.210938 38.9375 58.628906 C 42.328125 59.503906 45.902344 59.414062 48.574219 59.226562 C 51.601562 59.011719 54.617188 58.613281 57.601562 58.027344 C 57.519531 57.46875 57.472656 56.902344 57.386719 56.378906 C 57.234375 55.445312 57.085938 54.507812 56.9375 53.574219 C 56.636719 51.699219 56.351562 49.824219 56.074219 47.945312 C 55.933594 47.003906 55.800781 46.0625 55.660156 45.121094 C 55.535156 44.246094 55.355469 43.34375 55.527344 42.46875 C 55.679688 41.660156 56.050781 40.902344 56.359375 40.148438 C 56.730469 39.25 57.066406 38.300781 57.558594 37.457031 C 57.597656 37.390625 57.742188 37.410156 57.722656 37.5 C 57.359375 39.230469 56.273438 40.820312 56.058594 42.582031 C 55.945312 43.523438 56.222656 44.515625 56.371094 45.441406 C 56.523438 46.378906 56.675781 47.3125 56.820312 48.25 C 57.117188 50.125 57.40625 52 57.683594 53.878906 C 57.820312 54.820312 57.957031 55.761719 58.09375 56.703125 C 58.152344 57.085938 58.234375 57.484375 58.300781 57.886719 C 61.300781 57.269531 64.269531 56.464844 67.183594 55.480469 C 67.964844 52.226562 67.949219 49.535156 67.136719 47.253906 Z M 44.199219 32.917969 C 44.28125 34.355469 44.378906 36.148438 45.53125 37.210938 C 46.269531 37.890625 47.179688 37.4375 47.914062 37.007812 C 48.582031 36.613281 49.230469 36.175781 49.855469 35.71875 C 51.585938 34.453125 53.132812 32.992188 54.644531 31.488281 C 54.496094 31.332031 54.355469 31.167969 54.234375 30.988281 C 54.207031 30.949219 54.191406 30.902344 54.183594 30.855469 L 54.167969 30.722656 C 54.136719 30.484375 54.105469 30.242188 54.074219 30.003906 L 54.070312 29.980469 C 53.960938 29.160156 53.851562 28.3125 53.839844 27.464844 C 53.824219 26.128906 54.042969 24.8125 54.492188 23.554688 C 54.511719 23.503906 54.53125 23.453125 54.550781 23.402344 C 54.566406 23.351562 54.597656 23.308594 54.640625 23.273438 C 54.667969 23.101562 54.703125 22.925781 54.742188 22.75 C 54.992188 21.628906 55.394531 20.5 55.992188 19.589844 C 55.953125 19.492188 55.9375 19.386719 55.945312 19.28125 C 55.957031 19.113281 56.210938 19.113281 56.308594 19.191406 C 56.449219 19.300781 56.550781 19.449219 56.699219 19.558594 C 56.832031 19.65625 56.984375 19.710938 57.140625 19.753906 C 57.152344 19.746094 57.167969 19.738281 57.179688 19.730469 C 58.878906 18.847656 60.140625 17.179688 60.476562 15.378906 C 60.570312 14.847656 60.5625 14.300781 60.453125 13.832031 C 60.351562 13.417969 60.113281 12.863281 59.570312 12.566406 C 58.914062 12.207031 58.097656 12.394531 57.546875 12.6875 C 57.210938 12.867188 56.910156 13.105469 56.621094 13.367188 C 56.503906 13.941406 56.304688 14.496094 56.046875 15.027344 C 55.695312 15.75 55.21875 16.683594 54.320312 16.785156 C 53.476562 16.878906 53.09375 16.148438 53.179688 15.40625 C 53.25 14.808594 53.398438 14.246094 53.386719 13.636719 C 53.382812 13.179688 53.3125 12.730469 53.222656 12.285156 C 52.5625 12.542969 52 13.042969 51.300781 13.21875 C 51.003906 13.292969 50.679688 13.328125 50.375 13.273438 C 49.941406 13.195312 49.59375 12.824219 49.136719 12.953125 C 48.449219 13.152344 48.128906 14.003906 47.433594 14.238281 C 45.898438 14.765625 45.660156 12.28125 45.628906 11.355469 C 45.59375 10.453125 45.796875 9.605469 45.910156 8.714844 C 46.003906 7.96875 45.921875 7.109375 45.371094 6.585938 C 44.613281 7.265625 43.878906 7.925781 43.277344 8.765625 C 42.703125 9.570312 42.25 10.464844 41.953125 11.40625 C 42.023438 11.386719 42.097656 11.375 42.167969 11.359375 C 42.683594 11.273438 44.105469 11.277344 44.171875 12 C 44.175781 12.035156 44.140625 12.074219 44.105469 12.078125 C 43.585938 12.183594 43.0625 11.859375 42.515625 11.902344 C 42.242188 11.921875 41.996094 11.996094 41.761719 12.105469 C 41.652344 12.589844 41.578125 13.082031 41.546875 13.578125 C 41.515625 14.070312 41.605469 14.621094 41.414062 15.089844 C 41.285156 15.414062 41.003906 15.699219 40.652344 15.78125 C 40.484375 15.816406 40.335938 15.796875 40.199219 15.742188 C 40.402344 18.878906 41.21875 22.011719 42.570312 24.835938 C 42.742188 25.195312 42.917969 25.535156 43.191406 25.773438 C 43.605469 26.128906 44.214844 26.210938 44.746094 26.222656 C 46.109375 26.140625 47.433594 26 48.726562 25.457031 C 50.203125 24.839844 51.46875 23.902344 52.554688 22.734375 C 52.660156 22.617188 52.992188 22.703125 52.871094 22.875 C 51.898438 24.285156 50.476562 25.371094 48.890625 26.027344 C 47.878906 26.445312 46.722656 26.765625 45.585938 26.808594 C 45.667969 27.171875 45.703125 27.554688 45.722656 27.921875 C 45.789062 29.046875 45.839844 30.167969 45.867188 31.25 C 45.867188 31.269531 45.863281 31.28125 45.863281 31.296875 L 45.863281 31.300781 C 45.957031 32.253906 45.65625 33.269531 45.179688 34.074219 C 45.113281 34.183594 44.820312 34.167969 44.875 34.007812 C 45.097656 33.355469 45.203125 32.726562 45.261719 32.085938 C 44.9375 32.40625 44.574219 32.671875 44.199219 32.917969 Z M 67.726562 55.78125 C 67.703125 55.882812 67.628906 55.960938 67.53125 55.992188 C 64.535156 57.015625 61.480469 57.84375 58.390625 58.480469 C 58.164062 58.527344 57.933594 58.570312 57.707031 58.617188 C 54.703125 59.203125 51.667969 59.609375 48.617188 59.824219 C 47.625 59.894531 46.515625 59.949219 45.335938 59.949219 C 43.359375 59.949219 41.191406 59.792969 39.070312 59.277344 C 39.046875 59.273438 39.019531 59.269531 38.996094 59.261719 C 38.867188 59.230469 38.738281 59.195312 38.609375 59.160156 C 38.542969 59.144531 38.476562 59.125 38.410156 59.105469 C 37.230469 58.777344 36.070312 58.328125 34.980469 57.722656 C 34.921875 57.691406 34.875 57.640625 34.847656 57.578125 C 33.875 55.300781 33.613281 52.71875 34.105469 50.3125 C 34.308594 49.332031 34.632812 48.367188 34.949219 47.433594 C 35.449219 45.941406 35.925781 44.53125 35.957031 43.035156 C 35.964844 42.527344 35.921875 41.996094 35.878906 41.480469 C 35.785156 40.3125 35.6875 39.101562 36.167969 37.988281 C 36.824219 36.472656 38.410156 35.566406 39.5625 34.90625 C 40.601562 34.3125 41.636719 33.714844 42.675781 33.121094 C 42.761719 33.070312 42.847656 33.023438 42.9375 32.972656 C 42.949219 32.964844 42.960938 32.957031 42.972656 32.949219 C 43.671875 32.550781 44.390625 32.132812 44.941406 31.554688 C 45.058594 31.433594 45.167969 31.300781 45.261719 31.167969 C 45.234375 30.125 45.1875 29.042969 45.121094 27.957031 C 45.097656 27.578125 45.0625 27.183594 44.972656 26.824219 L 44.90625 26.824219 C 44.234375 26.824219 43.402344 26.75 42.796875 26.222656 C 42.4375 25.914062 42.21875 25.496094 42.023438 25.089844 C 40.609375 22.132812 39.765625 18.835938 39.585938 15.546875 C 39.527344 15.503906 39.472656 15.460938 39.414062 15.414062 C 39.339844 15.355469 39.261719 15.296875 39.1875 15.234375 C 38.800781 14.921875 38.433594 14.597656 38.085938 14.253906 C 37.394531 13.578125 36.578125 12.652344 36.410156 11.472656 C 36.242188 10.25 36.820312 9.085938 37.347656 8.210938 C 38.957031 5.523438 41.253906 3.285156 43.988281 1.730469 C 45.445312 0.902344 46.8125 0.390625 48.164062 0.175781 C 50.722656 -0.230469 53.550781 0.375 56.574219 1.984375 C 58.402344 2.957031 59.78125 4.019531 60.777344 5.222656 C 62.027344 6.738281 62.6875 8.503906 62.625 10.199219 C 62.574219 11.570312 62 12.925781 61.074219 13.859375 C 61.171875 14.367188 61.167969 14.9375 61.066406 15.488281 C 60.71875 17.371094 59.445312 19.121094 57.71875 20.117188 C 57.960938 20.605469 58.1875 21.089844 58.394531 21.566406 C 58.679688 22.222656 58.503906 22.566406 58.304688 22.738281 C 58.035156 22.976562 57.683594 22.925781 57.429688 22.890625 L 57.394531 22.886719 C 57.199219 22.859375 57.101562 22.902344 57.097656 22.914062 C 57.085938 22.9375 57.097656 23.023438 57.101562 23.078125 C 57.109375 23.132812 57.117188 23.183594 57.117188 23.238281 C 57.132812 23.792969 56.640625 24.3125 56.039062 24.371094 C 55.671875 24.410156 55.289062 24.289062 54.960938 24.046875 C 54.601562 25.148438 54.429688 26.292969 54.445312 27.457031 C 54.457031 28.269531 54.566406 29.101562 54.671875 29.902344 L 54.671875 29.925781 C 54.703125 30.164062 54.734375 30.40625 54.765625 30.644531 L 54.773438 30.707031 C 54.863281 30.832031 54.964844 30.953125 55.074219 31.066406 C 55.203125 31.207031 55.347656 31.335938 55.503906 31.457031 C 55.761719 31.667969 56.050781 31.851562 56.355469 32.023438 C 56.546875 32.132812 56.746094 32.234375 56.949219 32.328125 C 57.40625 32.550781 57.886719 32.75 58.363281 32.945312 C 58.617188 33.046875 58.863281 33.152344 59.109375 33.253906 C 60.304688 33.769531 61.441406 34.417969 62.546875 35.042969 C 62.972656 35.289062 63.460938 35.5625 63.785156 36.011719 C 64.046875 36.367188 64.167969 36.777344 64.269531 37.167969 C 64.449219 37.828125 64.59375 38.503906 64.734375 39.160156 C 64.980469 40.316406 65.238281 41.511719 65.667969 42.621094 C 65.9375 43.3125 66.28125 43.996094 66.621094 44.65625 C 67.007812 45.425781 67.414062 46.222656 67.707031 47.054688 C 68.570312 49.484375 68.578125 52.339844 67.726562 55.78125 Z M 56.871094 14.742188 C 57.09375 13.976562 58.253906 13.128906 59.039062 13.613281 C 59.082031 13.640625 59.050781 13.695312 59.011719 13.703125 C 58.511719 13.835938 57.476562 14.011719 57.414062 14.691406 C 57.480469 14.875 57.546875 15.0625 57.613281 15.246094 C 57.664062 15.253906 57.710938 15.261719 57.757812 15.265625 C 57.847656 15.3125 57.972656 15.308594 58.070312 15.355469 C 58.191406 15.414062 58.292969 15.496094 58.375 15.605469 C 58.964844 16.398438 57.9375 17.625 57.4375 18.199219 C 57.242188 18.425781 56.757812 18.269531 56.964844 17.960938 C 57.226562 17.5625 57.554688 17.1875 57.773438 16.761719 C 57.894531 16.523438 58.074219 16.160156 57.898438 15.902344 C 57.789062 15.742188 57.507812 15.71875 57.347656 15.65625 C 56.902344 15.492188 56.730469 15.214844 56.871094 14.742188 " fill-opacity="1" fill-rule="nonzero"/></g></svg>