<svg xmlns="http://www.w3.org/2000/svg" xmlns:xlink="http://www.w3.org/1999/xlink" width="200" zoomAndPan="magnify" viewBox="0 0 150 52.499999" height="70" preserveAspectRatio="xMidYMid meet" version="1.0"><defs><clipPath id="3cc7256d02"><path d="M 28.195312 0 L 60 0 L 60 40 L 28.195312 40 Z M 28.195312 0 " clip-rule="nonzero"/></clipPath><clipPath id="dab0ce5520"><path d="M 113 29 L 121.804688 29 L 121.804688 40 L 113 40 Z M 113 29 " clip-rule="nonzero"/></clipPath><clipPath id="2ab0cf1e8a"><path d="M 57 46 L 62 46 L 62 52.003906 L 57 52.003906 Z M 57 46 " clip-rule="nonzero"/></clipPath></defs><g clip-path="url(#3cc7256d02)"><path fill="#231f20" d="M 58.59375 39.292969 L 51.820312 39.292969 C 51.675781 39.292969 51.429688 39.195312 51.378906 38.996094 L 43.617188 17.097656 L 35.957031 38.996094 C 35.910156 39.195312 35.664062 39.292969 35.464844 39.292969 L 28.738281 39.292969 C 28.300781 39.292969 28.101562 38.996094 28.242188 38.703125 L 43.125 0.304688 C 43.265625 -0.0859375 43.960938 -0.0859375 44.105469 0.304688 L 59.03125 38.703125 C 59.175781 38.996094 58.9375 39.292969 58.59375 39.292969 " fill-opacity="1" fill-rule="nonzero"/></g><path fill="#231f20" d="M 88.304688 11.796875 C 88.304688 23.335938 75.976562 23.488281 75.042969 23.488281 L 69.203125 23.488281 L 69.203125 38.855469 C 69.203125 39.054688 69.058594 39.300781 68.707031 39.300781 L 62.324219 39.300781 C 62.078125 39.300781 61.828125 39.054688 61.828125 38.855469 L 61.828125 16.21875 L 75.035156 16.21875 C 76.015625 16.21875 80.832031 16.125 80.832031 11.796875 C 80.832031 7.46875 75.921875 7.230469 75.035156 7.230469 L 61.828125 7.230469 L 61.828125 0.453125 C 61.828125 0.253906 62.078125 0.0078125 62.324219 0.0078125 L 75.042969 0.0078125 C 76.613281 0.0078125 88.304688 0.253906 88.304688 11.796875 " fill-opacity="1" fill-rule="nonzero"/><path fill="#231f20" d="M 90.855469 6.296875 L 90.855469 0.453125 C 90.855469 0.253906 91.105469 0.0078125 91.398438 0.0078125 L 113.9375 0.0078125 C 114.28125 0.0078125 114.480469 0.253906 114.480469 0.453125 L 114.480469 6.296875 C 114.480469 6.542969 114.28125 6.742188 113.9375 6.742188 L 91.398438 6.742188 C 91.105469 6.742188 90.855469 6.542969 90.855469 6.296875 M 106.421875 14.25 L 106.421875 38.855469 C 106.421875 39.054688 106.175781 39.300781 105.832031 39.300781 L 99.496094 39.300781 C 99.152344 39.300781 98.953125 39.054688 98.953125 38.855469 L 98.953125 14.25 Z M 106.421875 14.25 " fill-opacity="1" fill-rule="nonzero"/><g clip-path="url(#dab0ce5520)"><path fill="#231f20" d="M 113.378906 34.445312 L 113.378906 29.695312 C 113.378906 29.695312 113.394531 29.632812 113.425781 29.609375 C 113.460938 29.585938 113.492188 29.59375 113.523438 29.609375 L 117.644531 31.984375 L 121.757812 34.359375 C 121.757812 34.359375 121.78125 34.382812 121.796875 34.398438 C 121.804688 34.414062 121.8125 34.429688 121.8125 34.445312 C 121.8125 34.460938 121.8125 34.480469 121.796875 34.496094 C 121.789062 34.511719 121.773438 34.519531 121.757812 34.535156 L 117.644531 36.910156 L 113.523438 39.285156 C 113.523438 39.285156 113.460938 39.300781 113.425781 39.285156 C 113.394531 39.269531 113.378906 39.238281 113.378906 39.195312 Z M 113.378906 34.445312 " fill-opacity="1" fill-rule="nonzero"/></g><path fill="#231f20" d="M 37.902344 51.996094 L 37.902344 46.019531 L 38.421875 46.019531 L 41.15625 50.683594 L 40.882812 50.683594 L 43.59375 46.019531 L 44.113281 46.019531 L 44.113281 51.996094 L 43.507812 51.996094 L 43.507812 46.96875 L 43.648438 46.96875 L 41.15625 51.230469 L 40.859375 51.230469 L 38.351562 46.96875 L 38.507812 46.96875 L 38.507812 51.996094 Z M 37.902344 51.996094 " fill-opacity="1" fill-rule="nonzero"/><g clip-path="url(#2ab0cf1e8a)"><path fill="#231f20" d="M 57.445312 51.996094 L 57.445312 46.019531 L 61.542969 46.019531 L 61.542969 46.570312 L 58.074219 46.570312 L 58.074219 51.453125 L 61.671875 51.453125 L 61.671875 52.003906 L 57.445312 52.003906 Z M 58.011719 48.6875 L 61.175781 48.6875 L 61.175781 49.230469 L 58.011719 49.230469 Z M 58.011719 48.6875 " fill-opacity="1" fill-rule="nonzero"/></g><path fill="#231f20" d="M 74.550781 51.996094 L 74.550781 46.019531 L 76.980469 46.019531 C 77.617188 46.019531 78.175781 46.148438 78.664062 46.402344 C 79.140625 46.65625 79.515625 47.007812 79.785156 47.453125 C 80.058594 47.898438 80.183594 48.425781 80.183594 49.007812 C 80.183594 49.589844 80.050781 50.117188 79.785156 50.5625 C 79.515625 51.015625 79.140625 51.367188 78.664062 51.613281 C 78.183594 51.871094 77.617188 51.996094 76.980469 51.996094 Z M 75.179688 51.445312 L 76.949219 51.445312 C 77.484375 51.445312 77.9375 51.34375 78.328125 51.136719 C 78.71875 50.929688 79.019531 50.640625 79.234375 50.273438 C 79.453125 49.910156 79.5625 49.484375 79.5625 49.007812 C 79.5625 48.53125 79.453125 48.097656 79.234375 47.734375 C 79.019531 47.367188 78.71875 47.078125 78.328125 46.871094 C 77.9375 46.664062 77.476562 46.5625 76.949219 46.5625 L 75.179688 46.5625 Z M 75.179688 51.445312 " fill-opacity="1" fill-rule="nonzero"/><path fill="#231f20" d="M 92.992188 46.019531 L 93.621094 46.019531 L 93.621094 51.996094 L 92.992188 51.996094 Z M 92.992188 46.019531 " fill-opacity="1" fill-rule="nonzero"/><path fill="#231f20" d="M 106.007812 51.996094 L 108.742188 46.019531 L 109.363281 46.019531 L 112.097656 51.996094 L 111.433594 51.996094 L 108.925781 46.386719 L 109.179688 46.386719 L 106.667969 51.996094 Z M 107.082031 50.402344 L 107.273438 49.894531 L 110.75 49.894531 L 110.941406 50.402344 Z M 107.082031 50.402344 " fill-opacity="1" fill-rule="nonzero"/></svg>